<?xml version="1.0" encoding="UTF-8" standalone="no"?>
<!-- Created with Inkscape (http://www.inkscape.org/) -->

<svg
   xmlns:dc="http://purl.org/dc/elements/1.1/"
   xmlns:cc="http://creativecommons.org/ns#"
   xmlns:rdf="http://www.w3.org/1999/02/22-rdf-syntax-ns#"
   xmlns:svg="http://www.w3.org/2000/svg"
   xmlns="http://www.w3.org/2000/svg"
   xmlns:sodipodi="http://sodipodi.sourceforge.net/DTD/sodipodi-0.dtd"
   xmlns:inkscape="http://www.inkscape.org/namespaces/inkscape"
   version="1.1"
   id="svg2"
   xml:space="preserve"
   width="566.92883"
   height="144.46744"
   viewBox="0 0 566.92882 144.46744"
   sodipodi:docname="logo-sulamerica.svg"
   inkscape:version="0.92.3 (2405546, 2018-03-11)"><metadata
     id="metadata8"><rdf:RDF><cc:Work
         rdf:about=""><dc:format>image/svg+xml</dc:format><dc:type
           rdf:resource="http://purl.org/dc/dcmitype/StillImage" /><dc:title></dc:title></cc:Work></rdf:RDF></metadata><defs
     id="defs6"><clipPath
       clipPathUnits="userSpaceOnUse"
       id="clipPath18"><path
         d="M 0,595.28 H 841.89 V 0 H 0 Z"
         id="path16"
         inkscape:connector-curvature="0" /></clipPath></defs><sodipodi:namedview
     pagecolor="#ffffff"
     bordercolor="#666666"
     borderopacity="1"
     objecttolerance="10"
     gridtolerance="10"
     guidetolerance="10"
     inkscape:pageopacity="0"
     inkscape:pageshadow="2"
     inkscape:window-width="1920"
     inkscape:window-height="1025"
     id="namedview4"
     showgrid="false"
     fit-margin-top="0"
     fit-margin-left="0"
     fit-margin-right="0"
     fit-margin-bottom="0"
     inkscape:zoom="0.29733907"
     inkscape:cx="284.14594"
     inkscape:cy="72.161614"
     inkscape:window-x="0"
     inkscape:window-y="27"
     inkscape:window-maximized="1"
     inkscape:current-layer="g10" /><g
     id="g10"
     inkscape:groupmode="layer"
     inkscape:label="nova-logo-sulamerica"
     transform="matrix(1.3333333,0,0,-1.3333333,-277.11407,469.15917)"><g
       id="g12"><g
         id="g14"
         clip-path="url(#clipPath18)"><g
           id="g20"
           transform="translate(420.312,244.2881)"><path
             d="m 0,0 h -11.555 c -0.022,0.385 -0.057,0.731 -0.057,1.091 -0.004,8.845 0.006,17.691 -0.014,26.536 -0.002,1.16 -0.07,2.36 -0.314,3.497 -0.6,2.775 -2.868,4.694 -5.895,5.189 -1.462,0.243 -2.913,0.205 -4.33,-0.212 -3.47,-1.039 -5.41,-3.65 -5.41,-7.333 -0.009,-9.236 -0.003,-18.472 0,-27.709 V 0 h -11.844 v 0.821 c 0,8.967 -0.03,17.949 0.012,26.921 0.015,3.208 0.581,6.325 1.889,9.269 1.982,4.452 5.595,7.031 10.02,8.629 4.872,1.75 9.826,1.942 14.804,0.441 2.527,-0.756 4.57,-2.341 6.469,-4.117 0.205,-0.193 0.411,-0.393 0.485,-0.455 1.433,1.095 2.729,2.283 4.201,3.174 2.786,1.681 5.902,2.27 9.129,2.278 7.622,0.012 13.607,-3.093 17.783,-9.487 1.718,-2.618 2.591,-5.601 2.629,-8.718 0.089,-9.365 0.058,-18.73 0.096,-28.102 0,-0.552 -0.173,-0.724 -0.724,-0.718 -1.854,0.031 -3.702,-0.012 -5.555,0.039 -3.567,0.089 -5.645,2.232 -5.645,5.778 -0.019,7.525 0,15.036 -0.025,22.548 0,0.75 -0.059,1.519 -0.231,2.245 -0.828,3.623 -4.131,5.985 -8.191,5.795 C 6.7,36.293 5.641,36.119 4.68,35.773 1.437,34.611 0.01,32.36 0.004,28.537 -0.012,22.437 0,16.325 0,10.219 V 0.987 Z"
             style="fill:#154778;fill-opacity:1;fill-rule:evenodd;stroke:none"
             id="path22"
             inkscape:connector-curvature="0" /></g><g
           id="g24"
           transform="translate(207.8423,263.0576)"><path
             d="m 0,0 h 2.12 c 2.867,-0.014 5.738,-0.026 8.606,-0.02 0.48,0 0.721,-0.07 0.852,-0.629 1.007,-4.432 4.149,-7.264 8.673,-7.856 3.134,-0.418 6.253,-0.457 9.258,0.665 2.428,0.898 4.133,2.503 4.529,5.203 0.285,1.962 -0.413,3.599 -1.87,4.888 -1.72,1.52 -3.832,2.309 -5.992,2.912 C 22.12,6.306 18.018,7.26 14,8.505 c -2.198,0.679 -4.354,1.622 -6.359,2.739 -4.509,2.507 -6.99,6.414 -7.37,11.61 -0.392,5.401 1.352,9.974 5.41,13.541 3.845,3.38 8.316,5.372 13.487,5.721 5.008,0.344 9.918,-0.019 14.531,-2.12 6.224,-2.838 9.88,-7.797 11.32,-14.43 0.117,-0.512 0.127,-1.064 0.201,-1.724 -0.621,0 -1.169,-0.008 -1.704,0.006 -2.06,0.039 -4.122,-0.006 -6.175,0.134 -1.677,0.11 -3.15,0.918 -3.834,2.469 -1.422,3.221 -4.011,4.735 -7.269,5.407 -2.857,0.58 -5.741,0.835 -8.569,-0.095 -2.918,-0.949 -4.964,-2.797 -5.557,-5.959 -0.393,-2.059 0.473,-4.085 2.27,-5.151 2.729,-1.635 5.736,-2.578 8.758,-3.469 3.813,-1.142 7.643,-2.214 11.418,-3.465 2.689,-0.885 5.148,-2.27 7.22,-4.246 2.546,-2.424 3.931,-5.433 4.222,-8.91 0.555,-6.588 -1.703,-12.021 -6.999,-16.06 -2.619,-2.002 -5.685,-3.054 -8.916,-3.542 -5.125,-0.776 -10.263,-0.757 -15.233,0.841 C 6.98,-15.657 1.956,-10.418 0.221,-2.204 0.12,-1.727 0.067,-1.232 0.003,-0.735 -0.017,-0.54 0,-0.329 0,0"
             style="fill:#154778;fill-opacity:1;fill-rule:evenodd;stroke:none"
             id="path26"
             inkscape:connector-curvature="0" /></g><g
           id="g28"
           transform="translate(348.4482,288.4258)"><path
             d="M 0,0 C -0.067,0 -0.132,0 -0.195,0.006 -2.76,-7.171 -5.327,-14.354 -7.918,-21.617 H 7.672 C 5.103,-14.368 2.55,-7.185 0,0 m -28.244,-44.13 c 0.624,1.742 1.211,3.418 1.801,5.073 5.843,16.413 11.696,32.828 17.535,49.236 1.241,3.497 3.205,4.388 6.362,4.477 2.895,0.081 5.796,-0.008 8.692,0.033 0.663,0.006 0.945,-0.215 1.157,-0.811 3.54,-9.945 7.101,-19.888 10.658,-29.83 3.268,-9.142 6.535,-18.263 9.798,-27.397 0.086,-0.244 0.16,-0.494 0.266,-0.808 -0.309,-0.014 -0.561,-0.045 -0.808,-0.045 -3.604,0 -7.207,0.019 -10.809,-0.012 -0.612,-0.014 -0.847,0.211 -1.039,0.763 -1.238,3.593 -2.527,7.165 -3.767,10.745 -0.187,0.556 -0.46,0.756 -1.06,0.756 -7.073,-0.039 -14.14,-0.052 -21.211,-0.052 -0.735,0.006 -1.075,-0.23 -1.322,-0.948 -1.213,-3.535 -2.502,-7.057 -3.757,-10.588 -0.134,-0.389 -0.253,-0.695 -0.78,-0.695 -3.734,0.025 -7.464,0.019 -11.19,0.019 -0.13,0 -0.255,0.043 -0.526,0.084"
             style="fill:#154778;fill-opacity:1;fill-rule:evenodd;stroke:none"
             id="path30"
             inkscape:connector-curvature="0" /></g><g
           id="g32"
           transform="translate(621.8174,267.252)"><path
             d="m 0,0 c -1.738,-1.283 -3.568,-1.661 -5.407,-2.021 -2.522,-0.5 -5.06,-0.93 -7.555,-1.552 -2.594,-0.648 -3.837,-2.374 -3.997,-5.201 -0.123,-2.144 1.234,-4.247 3.355,-5.164 2.709,-1.174 5.487,-1.102 8.264,-0.369 3.373,0.901 5.011,2.818 5.25,6.315 0.16,2.251 0.077,4.534 0.09,6.792 0.007,0.327 0,0.654 0,1.2 m -26.613,10.686 c 0.558,4.561 3.092,7.723 6.791,10.123 3.042,1.962 6.391,2.95 9.997,3.194 4.848,0.32 9.49,-0.353 13.876,-2.547 4.789,-2.405 6.989,-6.421 7.059,-11.553 0.147,-10.776 0.064,-21.552 0.099,-32.335 0,-0.634 -0.169,-0.858 -0.823,-0.84 -1.652,0.051 -3.29,0.071 -4.94,0 -1.758,-0.07 -3.271,0.269 -4.092,1.829 -1.784,-0.584 -3.447,-1.38 -5.191,-1.636 -2.455,-0.372 -4.976,-0.488 -7.473,-0.442 -3.212,0.038 -6.362,0.647 -9.286,2.115 -4.399,2.233 -6.947,5.818 -7.326,10.706 -0.54,7.069 3.214,12.419 10.09,14.402 2.656,0.781 5.446,1.076 8.173,1.616 2.013,0.397 4.036,0.775 6.023,1.269 0.731,0.193 1.443,0.616 2.065,1.072 1.591,1.177 1.814,3.271 0.455,4.728 -0.548,0.596 -1.272,1.102 -2.017,1.404 -2.759,1.115 -5.59,1.173 -8.419,0.327 -1.636,-0.5 -2.918,-1.482 -3.61,-3.124 -0.078,-0.187 -0.348,-0.4 -0.532,-0.418 -3.574,-0.006 -7.154,0.018 -10.724,0.033 -0.054,0 -0.093,0.037 -0.195,0.077"
             style="fill:#154778;fill-opacity:1;fill-rule:evenodd;stroke:none"
             id="path34"
             inkscape:connector-curvature="0" /></g><g
           id="g36"
           transform="translate(463.4141,272.2412)"><path
             d="M 0,0 H 20.763 C 21.366,4.689 16.755,9.437 11.059,9.681 4.381,9.969 0.327,4.76 0,0 M 32.168,-7.792 H -0.288 c 0.205,-1.008 0.326,-1.932 0.563,-2.823 1.399,-5.167 5.568,-8.313 10.924,-8.338 2.477,-0.007 4.856,0.275 6.845,1.918 0.705,0.583 1.36,1.218 2.014,1.852 0.893,0.854 1.956,1.258 3.181,1.258 2.746,-0.013 5.482,-0.006 8.358,-0.006 -0.294,-0.859 -0.513,-1.674 -0.846,-2.451 -2.894,-6.811 -8.013,-10.802 -15.337,-11.911 -3.502,-0.522 -7.036,-0.712 -10.475,0.27 -7.146,2.039 -11.854,6.722 -14.176,13.764 -1.41,4.331 -1.488,8.801 -1.142,13.305 0.256,3.354 0.949,6.611 2.662,9.544 3.342,5.709 8.332,9.153 14.875,10.206 5.138,0.833 10.115,0.153 14.625,-2.555 5.421,-3.257 8.556,-8.19 9.794,-14.347 0.63,-3.157 0.745,-6.345 0.591,-9.686"
             style="fill:#154778;fill-opacity:1;fill-rule:evenodd;stroke:none"
             id="path38"
             inkscape:connector-curvature="0" /></g><g
           id="g40"
           transform="translate(298.2651,290.2607)"><path
             d="m 0,0 c 0.016,-0.315 0.043,-0.539 0.043,-0.777 0,-8.524 0.031,-17.069 -0.027,-25.593 -0.019,-3.272 -0.507,-6.479 -1.693,-9.558 -1.956,-5.081 -5.545,-8.358 -10.807,-9.75 -4.628,-1.225 -9.297,-1.237 -13.916,-0.07 -6.789,1.72 -10.767,6.195 -12.347,12.919 -0.698,2.969 -0.731,5.991 -0.718,9.012 0.03,7.518 0.041,15.035 0.057,22.546 0.005,0.384 0.005,0.778 0.005,1.219 h 11.789 c 0.019,-0.326 0.06,-0.655 0.06,-0.988 0.011,-8.794 0.003,-17.588 0.047,-26.382 0.007,-1.206 0.164,-2.458 0.49,-3.611 0.731,-2.612 2.462,-4.232 5.185,-4.696 2.005,-0.34 3.962,-0.173 5.802,0.7 3.079,1.474 4.485,4.08 4.515,7.368 0.068,7.128 0.007,14.261 0.02,21.381 0.007,0.776 0.054,1.572 0.245,2.309 0.604,2.361 2.552,3.842 5.212,3.951 1.768,0.072 3.546,0.013 5.323,0.02 z"
             style="fill:#154778;fill-opacity:1;fill-rule:evenodd;stroke:none"
             id="path42"
             inkscape:connector-curvature="0" /></g><g
           id="g44"
           transform="translate(589.4033,277.9434)"><path
             d="m 0,0 h -5.181 c -1.745,0 -3.5,-0.012 -5.246,0.014 -0.238,0 -0.597,0.095 -0.702,0.275 -1.482,2.419 -3.781,3.452 -6.459,3.734 -2.186,0.231 -4.366,0.02 -6.447,-0.808 -3.404,-1.34 -5.4,-3.932 -6.293,-7.363 -1.259,-4.805 -1.106,-9.558 1.061,-14.106 1.962,-4.15 5.344,-6.162 9.921,-6.234 2.427,-0.052 4.742,0.261 6.735,1.768 0.736,0.573 1.432,1.213 2.106,1.874 0.697,0.7 1.526,1.162 2.484,1.174 2.962,0.058 5.933,0.026 9.094,0.026 -0.402,-1.109 -0.697,-2.174 -1.168,-3.175 -2.831,-6.146 -7.715,-9.693 -14.266,-10.983 -4.437,-0.878 -8.875,-0.768 -13.169,0.809 -5.918,2.183 -9.767,6.491 -11.916,12.277 -2.883,7.763 -2.725,15.51 1.141,22.913 3.329,6.383 8.73,10.205 15.851,11.155 6.728,0.89 12.906,-0.655 17.987,-5.454 C -2.268,5.819 -0.992,3.177 -0.006,0.373 0.028,0.276 0,0.167 0,0"
             style="fill:#154778;fill-opacity:1;fill-rule:evenodd;stroke:none"
             id="path46"
             inkscape:connector-curvature="0" /></g><g
           id="g48"
           transform="translate(315.9678,244.2305)"><path
             d="m 0,0 h -11.954 v 0.827 c 0,17.256 -0.004,34.504 0.013,51.759 0,0.817 0.105,1.67 0.306,2.475 0.513,2.059 1.798,3.503 3.958,3.643 2.534,0.174 5.087,0.039 7.677,0.039 z"
             style="fill:#154778;fill-opacity:1;fill-rule:evenodd;stroke:none"
             id="path50"
             inkscape:connector-curvature="0" /></g><g
           id="g52"
           transform="translate(525.6465,278.9443)"><path
             d="m 0,0 c -2.32,-0.339 -4.547,-0.577 -6.723,-1.038 -1.122,-0.244 -2.218,-0.776 -3.218,-1.366 -2.333,-1.392 -3.471,-3.535 -3.477,-6.242 -0.022,-8.3 -0.022,-16.593 -0.022,-24.894 v -1.064 h -11.845 v 0.814 c 0,6.099 -0.008,12.213 -0.015,18.307 0,2.174 -0.044,4.336 0.028,6.498 0.253,9.473 5.106,15.869 14.165,18.736 3.404,1.065 6.898,1.539 10.453,1.559 0.206,0 0.41,-0.02 0.654,-0.032 z"
             style="fill:#154778;fill-opacity:1;fill-rule:evenodd;stroke:none"
             id="path54"
             inkscape:connector-curvature="0" /></g><g
           id="g56"
           transform="translate(543.0371,244.2881)"><path
             d="m 0,0 h -11.97 v 0.878 c 0,12.997 0,25.986 0.012,38.981 0.012,0.822 0.117,1.675 0.335,2.463 0.582,2.116 2.353,3.516 4.674,3.624 2.053,0.098 4.119,0.027 6.184,0.027 0.227,0.006 0.456,0 0.765,0 z"
             style="fill:#154778;fill-opacity:1;fill-rule:evenodd;stroke:none"
             id="path58"
             inkscape:connector-curvature="0" /></g><g
           id="g60"
           transform="translate(543.0625,294.2764)"><path
             d="m 0,0 h -11.874 c 0.109,2.257 -0.529,4.592 1.068,6.59 1.034,1.309 2.326,2.208 4.032,2.255 C -4.542,8.919 -2.308,8.87 0,8.87 Z"
             style="fill:#154778;fill-opacity:1;fill-rule:evenodd;stroke:none"
             id="path62"
             inkscape:connector-curvature="0" /></g><g
           id="g64"
           transform="translate(470.873,294.3711)"><path
             d="m 0,0 c 0.398,0.59 0.694,1.047 0.988,1.495 1.316,1.976 2.643,3.942 3.958,5.914 0.557,0.819 1.278,1.376 2.317,1.376 2.758,0.007 5.522,0.007 8.388,0.007 C 15.491,8.59 15.399,8.436 15.273,8.307 12.888,5.928 10.5,3.558 8.141,1.169 7.364,0.379 6.448,-0.006 5.344,0 3.625,0.014 1.899,0 0,0"
             style="fill:#154778;fill-opacity:1;fill-rule:evenodd;stroke:none"
             id="path66"
             inkscape:connector-curvature="0" /></g><g
           id="g68"
           transform="translate(632.9062,338.5127)"><path
             d="m 0,0 c -0.531,-0.093 -1.067,-0.119 -1.576,-0.26 -4.035,-1.155 -8.159,-1.671 -12.343,-1.793 -5.983,-0.166 -11.941,0.276 -17.851,1.149 -6.306,0.933 -12.577,2.046 -18.869,3.112 -9.385,1.603 -18.757,3.34 -28.162,4.809 -4.858,0.759 -9.773,1.174 -14.687,1.53 -5.075,0.356 -10.16,0.329 -15.248,-0.081 -4.316,-0.342 -8.58,-0.958 -12.795,-1.997 -8.956,-2.223 -17.467,-5.69 -25.828,-9.534 -11.069,-5.097 -21.743,-10.934 -32.172,-17.221 -0.244,-0.147 -5.74,-3.117 -6.196,-3.313 1.417,0.061 3.791,0.369 4.804,0.498 4.625,0.583 9.27,1.08 13.856,1.85 8.531,1.431 16.918,3.515 25.086,6.366 6.318,2.2 12.559,4.635 18.75,7.165 11.802,4.824 24.079,7.124 36.796,7.284 6.495,0.082 12.985,-0.065 19.465,-0.61 4.445,-0.374 8.877,-0.756 13.324,-1.148 4.95,-0.449 9.902,-1.004 14.867,-1.341 5.175,-0.349 10.363,-0.564 15.548,-0.703 5.085,-0.12 10.169,0.059 15.194,0.986 2.433,0.442 4.836,1.033 7.09,2.107 0.39,0.193 0.712,0.529 1.073,0.791 z"
             style="fill:#df6d36;fill-opacity:1;fill-rule:evenodd;stroke:none"
             id="path70"
             inkscape:connector-curvature="0" /></g><g
           id="g72"
           transform="translate(453.3633,318.2207)"><path
             d="m 0,0 c -3.047,-0.651 -6.71,-0.898 -9.567,-0.812 -7.394,0.234 -14.794,0.604 -22.188,1.027 -3.346,0.196 -6.702,0.485 -10.016,0.988 -7.027,1.058 -13.695,3.293 -20.051,6.472 -5.825,2.919 -11.21,6.533 -16.548,10.238 -5.099,3.534 -10.172,7.109 -15.708,9.967 -6.209,3.193 -12.767,5.206 -19.745,5.654 -5.832,0.376 -11.612,-0.193 -17.317,-1.407 -9.087,-1.966 -18.059,-4.333 -26.886,-7.239 -12.286,-4.044 -24.637,-7.848 -37.486,-9.699 -4.169,-0.598 -8.372,-1.081 -12.574,-1.289 -4.032,-0.195 -8.08,-0.032 -12.116,0.1 -4.041,0.134 -8.036,0.747 -11.97,1.664 -3.515,0.833 -6.99,1.837 -10.485,2.758 -0.238,0.054 -0.513,-0.061 -0.772,-0.087 0.105,-0.222 0.151,-0.525 0.323,-0.65 0.758,-0.552 1.505,-1.143 2.344,-1.543 6.065,-2.912 12.588,-4.099 19.199,-4.859 3.13,-0.368 6.282,-0.596 9.428,-0.67 4.484,-0.093 8.979,-0.149 13.454,0.086 4.91,0.263 9.813,0.78 14.693,1.351 3.998,0.474 7.98,1.152 11.955,1.81 4.314,0.704 8.606,1.521 12.913,2.241 4.669,0.778 9.337,1.561 14.027,2.234 4.01,0.591 8.038,1.107 12.074,1.501 3.421,0.344 6.863,0.462 10.294,0.677 5.504,0.343 11.001,0.129 16.486,-0.375 4.276,-0.388 8.508,-1.093 12.681,-2.145 8.299,-2.095 16.048,-5.408 22.928,-10.533 5.215,-3.897 10.536,-7.578 16.475,-10.318 6.444,-2.963 13.178,-4.836 20.251,-5.438 3.725,-0.316 7.44,-0.19 11.162,0.262 5.621,0.709 11.028,2.171 16.166,4.532 C -3.6,-2.126 -2.188,-1.235 0,0"
             style="fill:#f68c3c;fill-opacity:1;fill-rule:evenodd;stroke:none"
             id="path74"
             inkscape:connector-curvature="0" /></g></g></g></g></svg>