<svg xmlns="http://www.w3.org/2000/svg" width="600" height="189" viewBox="0 0 600.72 189.44" shape-rendering="geometricPrecision" text-rendering="geometricPrecision" image-rendering="optimizeQuality" fill-rule="evenodd" clip-rule="evenodd"><defs><style>.fil0,.fil1{fill:#0c453d}.fil1{fill-rule:nonzero}</style></defs><g id="Layer_x0020_1"><path class="fil0" d="M83.12 0h64.26c5.35 0 10.29 4.04 10.29 10.33v20.65h-29.11V20.66h-26.62v8.6c3.79 2.01 52.91 21.8 53.24 22.03 2.41 1.66 2.45 3.12 2.49 5.84v26.16c-.12 0 .11 0 0 0 0 5.97-4.45 10.67-9.59 10.67 0 .12 0-.11 0 0H82.42c-4.62 0-9.59-4.7-9.59-9.64V61.61h.36v-.35h28.38v.35h.37v11.7h26.62v-8.6c-6.17-2.23-48.36-19.52-51.37-20.77l-.45-.24c.08.08-2.6-.74-3.91-5.83V9.98C72.83 3.96 78.58 0 83.12 0zm187.25 94h28.75V59.92h.36v-.34h29.82V94h28.74v-.35h.36V.38h-.36V.03H329.3v34.76h-30.18V.03h-28.75zm-100.42-9.98c0 4.91 4.38 9.98 9.59 9.98h68.87c5.95 0 9.58-5.42 9.58-9.98V.03h-29.1v71.58h-30.18V.03h-28.76v83.99zM368.22 94h29.47l3.55-13.08h31.24L436.02 94h29.48L432.11.03h-30.52c-4.35 12.31-33.37 88.63-33.37 93.97zm48.99-62.99l7.82 28.57h-16.34l8.52-28.57zM475.06 94h28.76V.03h-28.76z"/><path class="fil1" d="M181.6 125.8c1.39.89 3.37 1.56 5.51 1.56 3.16 0 5-1.67 5-4.08 0-2.2-1.28-3.51-4.51-4.72-3.9-1.42-6.32-3.48-6.32-6.82 0-3.72 3.09-6.49 7.74-6.49 2.42 0 4.23.56 5.26 1.16l-.86 2.53c-.74-.46-2.34-1.14-4.51-1.14-3.26 0-4.5 1.95-4.5 3.59 0 2.24 1.45 3.33 4.76 4.61 4.04 1.56 6.07 3.52 6.07 7.03 0 3.7-2.7 6.92-8.35 6.92-2.31 0-4.83-.7-6.11-1.56l.82-2.59zm30.96-7.45h-9.27v8.62h10.37v2.6h-13.49v-23.94h12.95v2.6h-9.83v7.56h9.27zm24.07 10.15c-1.39.53-4.16 1.31-7.39 1.31-3.62 0-6.6-.92-8.95-3.16-2.06-1.99-3.33-5.18-3.33-8.91 0-7.13 4.93-12.35 12.96-12.35 2.77 0 4.97.6 6 1.1l-.78 2.52c-1.28-.61-2.88-1.03-5.29-1.03-5.83 0-9.63 3.62-9.63 9.62 0 6.07 3.63 9.66 9.23 9.66 2.03 0 3.41-.29 4.12-.64v-7.14h-4.82v-2.49h7.88v11.51zm8.48-22.87v14.21c0 5.32 2.38 7.6 5.57 7.6 3.52 0 5.82-2.35 5.82-7.6v-14.21h3.13v13.99c0 7.35-3.87 10.34-9.05 10.34-4.91 0-8.6-2.77-8.6-10.23v-14.1h3.13zm23.67 11.22h3.17c3.3 0 5.39-1.81 5.39-4.54 0-3.09-2.24-4.44-5.5-4.44-1.49 0-2.52.11-3.06.25v8.73zm-3.08-10.9c1.56-.28 3.83-.49 5.93-.49 3.3 0 5.46.64 6.92 1.95 1.17 1.07 1.88 2.7 1.88 4.58 0 3.12-1.99 5.22-4.47 6.07v.11c1.81.64 2.91 2.34 3.48 4.83.78 3.33 1.35 5.64 1.85 6.56h-3.2c-.39-.71-.93-2.73-1.56-5.71-.71-3.3-2.03-4.55-4.83-4.65h-2.92v10.36h-3.08v-23.61zm31.73 13.67l-2.38-6.88c-.53-1.57-.88-2.99-1.24-4.37h-.07c-.35 1.38-.71 2.87-1.21 4.33l-2.34 6.92h7.24zm-7.88 2.42l-2.48 7.52h-3.2l8.16-23.93h3.7l8.16 23.93h-3.3l-2.55-7.52h-8.49zm21.65 5.11c.79.11 1.92.14 3.13.14 6.64 0 10.19-3.69 10.19-10.15.03-5.65-3.16-9.23-9.69-9.23-1.6 0-2.81.14-3.63.32v18.92zm-3.08-21.16c1.88-.32 4.11-.53 6.56-.53 4.44 0 7.6 1.06 9.7 2.98 2.16 1.95 3.41 4.72 3.41 8.59 0 3.91-1.25 7.1-3.45 9.31-2.27 2.23-5.96 3.44-10.61 3.44-2.24 0-4.05-.11-5.61-.29v-23.5zm26.19 11.72c0 5.15 2.77 9.73 7.67 9.73s7.67-4.51 7.67-9.95c0-4.79-2.48-9.76-7.63-9.76s-7.71 4.76-7.71 9.98zm18.61-.36c0 8.2-5.01 12.61-11.12 12.61-6.35 0-10.75-4.94-10.75-12.18 0-7.6 4.69-12.57 11.07-12.57 6.57 0 10.8 5.01 10.8 12.14zm7.8-.5h3.16c3.3 0 5.4-1.81 5.4-4.54 0-3.09-2.24-4.44-5.5-4.44-1.49 0-2.52.11-3.06.25v8.73zm-3.09-10.9c1.56-.28 3.84-.49 5.93-.49 3.3 0 5.47.64 6.93 1.95 1.17 1.07 1.88 2.7 1.88 4.58 0 3.12-1.99 5.22-4.47 6.07v.11c1.81.64 2.91 2.34 3.47 4.83.79 3.33 1.35 5.64 1.85 6.56h-3.19c-.4-.71-.93-2.73-1.56-5.71-.72-3.3-2.03-4.55-4.84-4.65h-2.91v10.36h-3.09v-23.61zm31.74 13.67l-2.38-6.88c-.53-1.57-.88-2.99-1.24-4.37h-.07c-.36 1.38-.71 2.87-1.21 4.33l-2.34 6.92h7.24zm-7.88 2.42l-2.49 7.52h-3.19l8.16-23.93h3.7l8.17 23.93h-3.31l-2.56-7.52h-8.48zM4.93 174.76v6.47h10.14c.6 0 .89.28.89.86v2.53c0 .59-.29.89-.89.89H.89c-.59 0-.89-.3-.89-.89v-23.39c0-.57.29-.86.86-.86h14.07c.59 0 .89.29.89.86v2.53c0 .6-.3.89-.89.89h-10v5.97h9.53c.57 0 .86.3.86.89v2.36c0 .59-.29.89-.86.89H4.93zm20.18 11.15c-2.41 0-4.47-.35-6.18-1.04-.5-.17-.68-.48-.54-.93l.54-1.85c.14-.53.48-.71 1-.54 1.48.52 2.96.78 4.47.78 1.28 0 2.23-.14 2.83-.44.61-.3.91-.82.91-1.56 0-.64-.29-1.15-.87-1.53-.58-.38-1.56-.81-2.95-1.29-1.93-.66-3.21-1.22-3.85-1.68-1.34-.95-2-2.37-2-4.25 0-1.73.61-3.05 1.84-3.96 1.22-.91 2.99-1.36 5.3-1.36 2.28 0 4.23.34 5.82 1 .48.22.64.54.5.97l-.54 1.78c-.14.52-.47.71-1 .54-1.52-.48-2.88-.72-4.07-.72-1.12 0-1.93.15-2.44.43-.52.29-.77.76-.77 1.43 0 .48.18.89.54 1.23.35.35.75.62 1.19.81.44.19 1.15.45 2.13.78 1.92.69 3.38 1.45 4.35 2.29.98.83 1.47 2.04 1.47 3.64 0 3.65-2.56 5.47-7.68 5.47zm20.32-3.82c1.52 0 2.66-.48 3.39-1.42.74-.94 1.11-2.47 1.11-4.59 0-2.11-.37-3.65-1.11-4.59-.73-.94-1.87-1.41-3.39-1.41-3.09 0-4.64 2-4.64 6s1.55 6.01 4.64 6.01zm-4.75-12.76c.5-.95 1.32-1.7 2.45-2.25 1.13-.55 2.35-.82 3.66-.82 2.52 0 4.48.83 5.87 2.48 1.4 1.66 2.09 4.1 2.09 7.34s-.69 5.69-2.09 7.34c-1.39 1.66-3.35 2.49-5.87 2.49-1.34 0-2.54-.25-3.61-.74-1.07-.49-1.86-1.22-2.36-2.2v5.65c0 .55-.27.82-.82.82h-3.07c-.57 0-.86-.27-.86-.82v-21.11c0-.55.29-.82.86-.82h2.79c.52 0 .81.24.85.71l.11 1.93zm21.29 5.51h8.85v-.22c0-1.52-.36-2.72-1.08-3.57-.73-.86-1.78-1.29-3.16-1.29-2.84 0-4.37 1.69-4.61 5.08zm10.57 6.49c.5-.24.86-.07 1.07.5l.61 1.68c.12.46-.06.8-.54 1.04-1.85.93-3.93 1.39-6.21 1.39-3.17 0-5.64-.86-7.41-2.59-1.78-1.73-2.66-4.14-2.66-7.23 0-3.12.81-5.54 2.44-7.27 1.63-1.72 3.85-2.59 6.66-2.59 2.74 0 4.86.82 6.36 2.45 1.5 1.63 2.25 3.8 2.25 6.51v1.76c0 .57-.29.85-.86.85H62.07c.2 1.43.8 2.56 1.81 3.38 1.01.82 2.34 1.23 3.98 1.23 1.64 0 3.2-.37 4.68-1.11zm7.77-12.55c1.7-1.68 3.99-2.52 6.87-2.52 2.36 0 4.19.41 5.5 1.22.5.28.66.65.47 1.1l-.86 1.93c-.24.5-.63.64-1.18.4-1.02-.46-2.14-.68-3.35-.68-1.65 0-2.92.48-3.83 1.44-.9.97-1.35 2.43-1.35 4.38 0 1.97.45 3.46 1.35 4.44.91.99 2.16 1.49 3.75 1.49 1.36 0 2.59-.29 3.68-.86.55-.24.92-.11 1.11.39l.86 1.97c.16.4 0 .77-.5 1.1-1.43.89-3.25 1.33-5.47 1.33-2.95 0-5.29-.86-7.01-2.56-1.73-1.7-2.59-4.14-2.59-7.3 0-3.17.85-5.59 2.55-7.27zm21.05 15.91c0 .55-.27.82-.82.82h-3.11c-.54 0-.82-.27-.82-.82v-17.18c0-.55.28-.82.82-.82h3.11c.55 0 .82.27.82.82v17.18zm0-20.93c0 .55-.26.82-.78.82H97.4c-.52 0-.79-.27-.79-.82v-2.5c0-.54.27-.82.79-.82h3.18c.52 0 .78.28.78.82v2.5zm15.76 13.11c-1.34.05-2.43.11-3.29.2-.86.08-1.67.23-2.45.46-.77.23-1.34.55-1.69.97-.36.41-.54.94-.54 1.58 0 .77.27 1.37.82 1.82.55.46 1.32.68 2.32.68 1.58 0 2.77-.38 3.59-1.16.82-.77 1.24-1.78 1.24-3.02v-1.53zm4.6 7.82c0 .55-.28.82-.86.82h-2.64c-.5 0-.77-.22-.82-.67l-.14-1.94c-1.26 1.96-3.43 2.93-6.5 2.93-1.88 0-3.37-.47-4.47-1.42-1.09-.96-1.64-2.3-1.64-4.04 0-1.02.2-1.91.61-2.66.4-.75.94-1.35 1.62-1.79.68-.44 1.57-.79 2.68-1.07 1.11-.27 2.24-.46 3.39-.57 1.16-.11 2.55-.17 4.17-.2v-.82c0-1.12-.33-1.94-.97-2.46-.64-.52-1.68-.79-3.11-.79-1.73 0-3.52.36-5.35 1.07-.5.17-.85 0-1.04-.5l-.64-1.96c-.15-.43.02-.76.5-1 2.12-.91 4.5-1.36 7.14-1.36 5.38 0 8.07 2.27 8.07 6.79v11.64zm8.93 0c0 .55-.27.82-.82.82h-3.11c-.52 0-.78-.27-.78-.82v-23.53c0-.53.26-.79.78-.79h3.11c.55 0 .82.26.82.79v23.53zm9.22 0c0 .55-.28.82-.82.82h-3.11c-.55 0-.82-.27-.82-.82v-17.18c0-.55.27-.82.82-.82h3.11c.54 0 .82.27.82.82v17.18zm0-20.93c0 .55-.27.82-.79.82h-3.18c-.52 0-.78-.27-.78-.82v-2.5c0-.54.26-.82.78-.82h3.18c.52 0 .79.28.79.82v2.5zm10.03 22.15c-2.4 0-4.46-.35-6.17-1.04-.5-.17-.68-.48-.54-.93l.54-1.85c.14-.53.47-.71.99-.54 1.48.52 2.97.78 4.47.78 1.29 0 2.23-.14 2.84-.44.61-.3.91-.82.91-1.56 0-.64-.29-1.15-.88-1.53-.58-.38-1.56-.81-2.94-1.29-1.93-.66-3.22-1.22-3.86-1.68-1.33-.95-2-2.37-2-4.25 0-1.73.62-3.05 1.84-3.96 1.23-.91 2.99-1.36 5.3-1.36 2.29 0 4.23.34 5.83 1 .47.22.64.54.49.97l-.53 1.78c-.14.52-.48.71-1 .54-1.52-.48-2.88-.72-4.07-.72-1.12 0-1.94.15-2.45.43-.51.29-.77.76-.77 1.43 0 .48.18.89.54 1.23.36.35.76.62 1.2.81.44.19 1.15.45 2.12.78 1.93.69 3.38 1.45 4.36 2.29.97.83 1.46 2.04 1.46 3.64 0 3.65-2.56 5.47-7.68 5.47zm16.22-15.22v8.68c0 1.02.17 1.72.5 2.11.33.38.99.57 1.96.57.17 0 .67-.06 1.51-.18.23-.02.41.02.51.14.11.12.18.31.2.57l.21 2c.03.41-.2.68-.68.83-.78.26-1.78.39-3 .39-2.09 0-3.59-.45-4.5-1.36-.9-.9-1.35-2.43-1.35-4.57v-9.18h-1.97c-.57 0-.85-.27-.85-.82v-2c0-.55.28-.82.85-.82h2.04v-4.39c0-.51.27-.76.82-.76h2.86c.57 0 .85.25.85.76v4.39h3.97c.55 0 .82.27.82.82v2c0 .55-.27.82-.82.82h-3.93zm19.04 6.18c-1.34.05-2.43.11-3.29.2-.86.08-1.67.23-2.45.46-.77.23-1.34.55-1.69.97-.36.41-.54.94-.54 1.58 0 .77.28 1.37.82 1.82.55.46 1.32.68 2.33.68 1.57 0 2.76-.38 3.58-1.16.83-.77 1.24-1.78 1.24-3.02v-1.53zm4.6 7.82c0 .55-.28.82-.85.82h-2.65c-.5 0-.77-.22-.82-.67l-.14-1.94c-1.26 1.96-3.43 2.93-6.5 2.93-1.88 0-3.37-.47-4.46-1.42-1.1-.96-1.65-2.3-1.65-4.04 0-1.02.2-1.91.61-2.66.4-.75.95-1.35 1.62-1.79.68-.44 1.58-.79 2.68-1.07 1.11-.27 2.24-.46 3.4-.57 1.15-.11 2.54-.17 4.16-.2v-.82c0-1.12-.32-1.94-.97-2.46-.64-.52-1.68-.79-3.1-.79-1.74 0-3.53.36-5.36 1.07-.5.17-.85 0-1.04-.5l-.64-1.96c-.14-.43.02-.76.5-1 2.12-.91 4.5-1.36 7.14-1.36 5.38 0 8.07 2.27 8.07 6.79v11.64zm17.9-9.85h8.86v-.22c0-1.52-.37-2.72-1.09-3.57-.73-.86-1.78-1.29-3.16-1.29-2.84 0-4.37 1.69-4.61 5.08zm10.57 6.49c.5-.24.86-.07 1.07.5l.61 1.68c.12.46-.06.8-.54 1.04-1.85.93-3.92 1.39-6.21 1.39-3.17 0-5.64-.86-7.41-2.59-1.77-1.73-2.66-4.14-2.66-7.23 0-3.12.81-5.54 2.44-7.27 1.64-1.72 3.85-2.59 6.67-2.59 2.73 0 4.85.82 6.35 2.45 1.5 1.63 2.25 3.8 2.25 6.51v1.76c0 .57-.28.85-.85.85h-12.18c.19 1.43.79 2.56 1.8 3.38 1.01.82 2.34 1.23 3.98 1.23 1.65 0 3.2-.37 4.68-1.11zm22.39 3.36c0 .55-.27.82-.82.82h-3.03c-.55 0-.82-.27-.82-.82v-10.78c0-1.2-.24-2.09-.7-2.7-.46-.61-1.23-.91-2.3-.91-1.24 0-2.21.39-2.91 1.16-.71.77-1.06 1.78-1.06 3.02v10.21c0 .55-.27.82-.82.82h-3.04c-.57 0-.85-.27-.85-.82v-17.18c0-.55.28-.82.85-.82h2.83c.52 0 .81.24.85.71l.18 1.86c.43-.81 1.13-1.51 2.09-2.1.96-.6 2.16-.9 3.59-.9 2.79 0 4.6 1.06 5.43 3.18 1.26-2.12 3.33-3.18 6.21-3.18 2 0 3.5.6 4.5 1.79s1.5 2.88 1.5 5.07v11.57c0 .55-.27.82-.82.82h-3.07c-.55 0-.82-.27-.82-.82v-10.75c0-1.21-.24-2.12-.72-2.73-.47-.61-1.26-.91-2.35-.91-1.19 0-2.14.37-2.84 1.12-.7.75-1.06 1.7-1.06 2.84v10.43zm27.6-15.91c1.7-1.68 3.99-2.52 6.87-2.52 2.36 0 4.19.41 5.5 1.22.5.28.66.65.47 1.1l-.86 1.93c-.24.5-.63.64-1.18.4-1.02-.46-2.14-.68-3.36-.68-1.64 0-2.91.48-3.82 1.44-.9.97-1.35 2.43-1.35 4.38 0 1.97.45 3.46 1.35 4.44.91.99 2.16 1.49 3.75 1.49 1.36 0 2.59-.29 3.68-.86.55-.24.92-.11 1.11.39l.86 1.97c.16.4 0 .77-.5 1.1-1.43.89-3.26 1.33-5.47 1.33-2.95 0-5.29-.86-7.02-2.56-1.72-1.7-2.59-4.14-2.59-7.3 0-3.17.85-5.59 2.56-7.27zm15.98-1.27c0-.55.29-.82.86-.82h3.07c.52 0 .78.27.78.82v10.68c0 1.22.26 2.14.75 2.77.5.63 1.36.94 2.58.94 1.28 0 2.3-.38 3.05-1.14.75-.76 1.12-1.78 1.12-3.07v-10.18c0-.55.28-.82.83-.82h3.1c.53 0 .79.27.79.82v17.18c0 .55-.26.82-.79.82h-2.85c-.53 0-.81-.22-.86-.67l-.14-1.94c-1.15 2.01-3.09 3.01-5.83 3.01-4.3 0-6.46-2.28-6.46-6.83v-11.57zm26.11 17.18c0 .55-.27.82-.82.82h-3.11c-.55 0-.82-.27-.82-.82v-17.18c0-.55.27-.82.82-.82h3.11c.55 0 .82.27.82.82v17.18zm0-20.93c0 .55-.26.82-.79.82h-3.17c-.53 0-.79-.27-.79-.82v-2.5c0-.54.26-.82.79-.82h3.17c.53 0 .79.28.79.82v2.5zm12.93 6.32c-1.5 0-2.63.47-3.38 1.41s-1.12 2.48-1.12 4.59c0 2.12.37 3.65 1.12 4.59.75.94 1.88 1.42 3.38 1.42 3.09 0 4.64-2.01 4.64-6.01s-1.55-6-4.64-6zm4.75 12.79c-.5.98-1.31 1.73-2.43 2.25s-2.35.79-3.68.79c-2.52 0-4.48-.83-5.87-2.49-1.4-1.65-2.09-4.1-2.09-7.34s.69-5.68 2.09-7.34c1.39-1.65 3.35-2.48 5.87-2.48 1.29 0 2.48.26 3.59.79 1.11.52 1.9 1.25 2.38 2.18v-8.07c0-.53.27-.79.82-.79h3.07c.57 0 .85.26.85.79v23.53c0 .55-.28.82-.85.82h-2.79c-.52 0-.81-.22-.86-.67l-.1-1.97zm20.36-6c-1.34.05-2.43.11-3.29.2-.85.08-1.67.23-2.44.46-.78.23-1.34.55-1.7.97-.36.41-.53.94-.53 1.58 0 .77.27 1.37.81 1.82.55.46 1.33.68 2.33.68 1.57 0 2.77-.38 3.58-1.16.83-.77 1.24-1.78 1.24-3.02v-1.53zm4.6 7.82c0 .55-.28.82-.85.82h-2.65c-.49 0-.77-.22-.81-.67l-.15-1.94c-1.26 1.96-3.43 2.93-6.5 2.93-1.88 0-3.37-.47-4.46-1.42-1.1-.96-1.64-2.3-1.64-4.04 0-1.02.2-1.91.6-2.66.41-.75.95-1.35 1.63-1.79.68-.44 1.57-.79 2.67-1.07 1.11-.27 2.24-.46 3.4-.57 1.15-.11 2.54-.17 4.16-.2v-.82c0-1.12-.32-1.94-.97-2.46-.64-.52-1.67-.79-3.1-.79-1.74 0-3.53.36-5.36 1.07-.5.17-.84 0-1.04-.5l-.64-1.96c-.14-.43.03-.76.5-1 2.12-.91 4.5-1.36 7.14-1.36 5.39 0 8.07 2.27 8.07 6.79v11.64zm7.79-18c.52 0 .81.25.86.75l.18 2.82c.4-.95 1.11-1.81 2.1-2.57 1-.76 2.19-1.14 3.58-1.14.26 0 .44.05.55.14.11.1.16.29.16.57v3.32c0 .43-.23.65-.68.65-.09 0-.26-.01-.5-.04-.24-.02-.45-.03-.64-.03-1.31 0-2.39.52-3.25 1.58-.86 1.06-1.28 2.31-1.28 3.74v8.21c0 .55-.28.82-.83.82h-3.07c-.57 0-.86-.27-.86-.82v-17.18c0-.55.29-.82.86-.82h2.82zm28.86 3.39c-1.5 0-2.62.47-3.37 1.41s-1.13 2.48-1.13 4.59c0 2.12.38 3.65 1.13 4.59.75.94 1.87 1.42 3.37 1.42 3.1 0 4.65-2.01 4.65-6.01s-1.55-6-4.65-6zm4.75 12.79c-.5.98-1.31 1.73-2.43 2.25-1.11.52-2.34.79-3.67.79-2.53 0-4.49-.83-5.88-2.49-1.39-1.65-2.09-4.1-2.09-7.34s.7-5.68 2.09-7.34c1.39-1.65 3.35-2.48 5.88-2.48 1.28 0 2.48.26 3.59.79 1.1.52 1.89 1.25 2.37 2.18v-8.07c0-.53.27-.79.82-.79h3.07c.57 0 .86.26.86.79v23.53c0 .55-.29.82-.86.82h-2.78c-.53 0-.81-.22-.86-.67l-.11-1.97zm21.97-6.79c0-4.02-1.5-6.03-4.5-6.03-2.98 0-4.47 2.01-4.47 6.03 0 4.03 1.49 6.04 4.47 6.04 3 0 4.5-2.01 4.5-6.04zm-11.3 7.29c-1.66-1.69-2.49-4.12-2.49-7.29 0-3.16.83-5.59 2.49-7.28 1.65-1.69 3.92-2.54 6.8-2.54s5.15.85 6.82 2.54 2.5 4.12 2.5 7.28c0 3.17-.83 5.6-2.5 7.29-1.67 1.69-3.94 2.54-6.82 2.54-2.88 0-5.15-.85-6.8-2.54zm38.09-13.29c-1.5 0-2.63.47-3.38 1.41s-1.12 2.48-1.12 4.59c0 2.12.37 3.65 1.12 4.59.75.94 1.88 1.42 3.38 1.42 3.09 0 4.64-2.01 4.64-6.01s-1.55-6-4.64-6zm4.85-2.68c.05-.47.34-.71.86-.71h2.78c.58 0 .86.27.86.82v21.11c0 .55-.28.82-.86.82h-3.06c-.56 0-.83-.27-.83-.82v-5.61c-.47.98-1.25 1.7-2.34 2.18-1.08.48-2.29.72-3.62.72-2.53 0-4.48-.83-5.88-2.49-1.39-1.65-2.09-4.1-2.09-7.34s.7-5.68 2.09-7.34c1.4-1.65 3.35-2.48 5.88-2.48 1.31 0 2.53.27 3.66.82 1.13.55 1.94 1.3 2.44 2.25l.11-1.93zm8.58.11c0-.55.28-.82.85-.82h3.07c.53 0 .79.27.79.82v10.68c0 1.22.25 2.14.75 2.77.5.63 1.36.94 2.57.94 1.29 0 2.3-.38 3.05-1.14.76-.76 1.13-1.78 1.13-3.07v-10.18c0-.55.27-.82.82-.82h3.11c.52 0 .78.27.78.82v17.18c0 .55-.26.82-.78.82h-2.86c-.52 0-.81-.22-.86-.67l-.14-1.94c-1.14 2.01-3.08 3.01-5.82 3.01-4.31 0-6.46-2.28-6.46-6.83v-11.57zm24.96 7.33h8.86v-.22c0-1.52-.36-2.72-1.09-3.57-.72-.86-1.78-1.29-3.16-1.29-2.83 0-4.37 1.69-4.61 5.08zm10.57 6.49c.51-.24.86-.07 1.08.5l.6 1.68c.12.46-.06.8-.53 1.04-1.86.93-3.93 1.39-6.22 1.39-3.17 0-5.64-.86-7.41-2.59-1.77-1.73-2.66-4.14-2.66-7.23 0-3.12.82-5.54 2.45-7.27 1.63-1.72 3.85-2.59 6.66-2.59 2.74 0 4.86.82 6.35 2.45 1.5 1.63 2.26 3.8 2.26 6.51v1.76c0 .57-.29.85-.86.85h-12.18c.19 1.43.79 2.56 1.81 3.38 1.01.82 2.33 1.23 3.98 1.23 1.64 0 3.2-.37 4.67-1.11zm23.79-20.75c.19-.38.51-.57.96-.57h3.61c.29 0 .46.11.5.32.05.22-.02.41-.21.58l-3.14 3.07c-.29.28-.65.43-1.07.43h-1.79c-.24 0-.4-.07-.48-.2-.09-.13-.08-.29.02-.48l1.6-3.15zm-4 14.26h8.86v-.22c0-1.52-.36-2.72-1.09-3.57-.73-.86-1.78-1.29-3.16-1.29-2.84 0-4.37 1.69-4.61 5.08zm10.57 6.49c.5-.24.86-.07 1.07.5l.61 1.68c.12.46-.06.8-.53 1.04-1.86.93-3.93 1.39-6.22 1.39-3.17 0-5.64-.86-7.41-2.59-1.77-1.73-2.66-4.14-2.66-7.23 0-3.12.82-5.54 2.45-7.27 1.63-1.72 3.85-2.59 6.66-2.59 2.73 0 4.85.82 6.35 2.45 1.5 1.63 2.25 3.8 2.25 6.51v1.76c0 .57-.28.85-.85.85h-12.18c.19 1.43.79 2.56 1.8 3.38 1.01.82 2.34 1.23 3.98 1.23 1.65 0 3.21-.37 4.68-1.11zm21.68 4.58c-2.4 0-4.46-.35-6.18-1.04-.5-.17-.68-.48-.53-.93l.53-1.85c.15-.53.48-.71 1-.54 1.48.52 2.97.78 4.47.78 1.28 0 2.23-.14 2.84-.44.6-.3.91-.82.91-1.56 0-.64-.29-1.15-.88-1.53-.58-.38-1.56-.81-2.94-1.29-1.93-.66-3.22-1.22-3.86-1.68-1.33-.95-2-2.37-2-4.25 0-1.73.61-3.05 1.84-3.96 1.23-.91 3-1.36 5.3-1.36 2.29 0 4.23.34 5.82 1 .48.22.65.54.5.97l-.53 1.78c-.14.52-.48.71-1 .54-1.53-.48-2.88-.72-4.07-.72-1.12 0-1.94.15-2.45.43-.51.29-.77.76-.77 1.43 0 .48.18.89.54 1.23.36.35.76.62 1.2.81.44.19 1.14.45 2.12.78 1.93.69 3.38 1.45 4.36 2.29.97.83 1.46 2.04 1.46 3.64 0 3.65-2.56 5.47-7.68 5.47zm14.43-11.07h8.86v-.22c0-1.52-.36-2.72-1.09-3.57-.72-.86-1.78-1.29-3.16-1.29-2.83 0-4.37 1.69-4.61 5.08zm10.57 6.49c.51-.24.86-.07 1.08.5l.6 1.68c.12.46-.05.8-.53 1.04-1.86.93-3.93 1.39-6.22 1.39-3.16 0-5.63-.86-7.4-2.59-1.78-1.73-2.67-4.14-2.67-7.23 0-3.12.82-5.54 2.45-7.27 1.63-1.72 3.85-2.59 6.66-2.59 2.74 0 4.86.82 6.36 2.45 1.5 1.63 2.25 3.8 2.25 6.51v1.76c0 .57-.29.85-.86.85h-12.18c.19 1.43.79 2.56 1.81 3.38 1.01.82 2.34 1.23 3.98 1.23 1.64 0 3.2-.37 4.67-1.11zm5.83-13.82c0-.55.29-.82.86-.82h3.07c.52 0 .78.27.78.82v10.68c0 1.22.25 2.14.75 2.77.5.63 1.36.94 2.57.94 1.29 0 2.31-.38 3.06-1.14.75-.76 1.12-1.78 1.12-3.07v-10.18c0-.55.28-.82.83-.82h3.1c.53 0 .79.27.79.82v17.18c0 .55-.26.82-.79.82h-2.85c-.53 0-.81-.22-.86-.67l-.14-1.94c-1.15 2.01-3.09 3.01-5.82 3.01-4.32 0-6.47-2.28-6.47-6.83v-11.57zm20.86 13.75c0-.52.29-.78.89-.78h3.14c.6 0 .89.26.89.78v3.43c0 .55-.27.82-.82.82h-3.28c-.55 0-.82-.27-.82-.82v-3.43z"/></g></svg>