<?xml version="1.0" encoding="UTF-8" standalone="no"?>
<svg
   xmlns:dc="http://purl.org/dc/elements/1.1/"
   xmlns:cc="http://creativecommons.org/ns#"
   xmlns:rdf="http://www.w3.org/1999/02/22-rdf-syntax-ns#"
   xmlns:svg="http://www.w3.org/2000/svg"
   xmlns="http://www.w3.org/2000/svg"
   xmlns:sodipodi="http://sodipodi.sourceforge.net/DTD/sodipodi-0.dtd"
   xmlns:inkscape="http://www.inkscape.org/namespaces/inkscape"
   id="Camada_1"
   data-name="Camada 1"
   viewBox="0 0 538.21959 206.65426"
   version="1.1"
   sodipodi:docname="5444.svg"
   width="538.2196"
   height="206.65427"
   inkscape:version="0.92.3 (2405546, 2018-03-11)"
   inkscape:export-filename="C:\Users\alex\sites\bradesco-seguros-logo-0.png"
   inkscape:export-xdpi="561.73999"
   inkscape:export-ydpi="561.73999">
  <metadata
     id="metadata14">
    <rdf:RDF>
      <cc:Work
         rdf:about="">
        <dc:format>image/svg+xml</dc:format>
        <dc:type
           rdf:resource="http://purl.org/dc/dcmitype/StillImage" />
        <dc:title>Prancheta 1</dc:title>
      </cc:Work>
    </rdf:RDF>
  </metadata>
  <sodipodi:namedview
     pagecolor="#ffffff"
     bordercolor="#666666"
     borderopacity="1"
     objecttolerance="10"
     gridtolerance="10"
     guidetolerance="10"
     inkscape:pageopacity="0"
     inkscape:pageshadow="2"
     inkscape:window-width="1920"
     inkscape:window-height="1025"
     id="namedview12"
     showgrid="false"
     inkscape:zoom="0.15880147"
     inkscape:cx="-1642.614"
     inkscape:cy="1016.3326"
     inkscape:window-x="0"
     inkscape:window-y="27"
     inkscape:window-maximized="1"
     inkscape:current-layer="Camada_1"
     fit-margin-top="0"
     fit-margin-left="0"
     fit-margin-right="0"
     fit-margin-bottom="0" />
  <defs
     id="defs4">
    <style
       id="style2">.cls-1{fill:#fff;}</style>
  </defs>
  <title
     id="title6">Prancheta 1</title>
  <path
     class="cls-1"
     d="m 324.7208,53.167845 v 12.66965 c -2.467,-0.6001 -5.0028,-0.87046 -7.5408,-0.80398 -15.9411,0 -26.7255,10.70128 -26.7255,27.7235 0,17.022245 10.5626,27.058155 27.0581,27.058155 7.3349,0.0774 14.6351,-1.01767 21.6244,-3.24365 V 41.523965 c -4.3187,1.49047 -8.3712,3.66184 -12.0043,6.43186 -1.662,1.19671 -2.5852,3.16916 -2.4397,5.21202 m 0,54.171745 c -1.9974,0.58505 -4.0738,0.85626 -6.1546,0.80398 -9.5368,0 -13.2518,-6.26551 -13.2518,-15.331095 0,-10.11908 3.715,-16.27371 13.1409,-16.27371 2.1156,-0.0222 4.2242,0.24757 6.2655,0.80399 z M 260.2358,64.811725 c -5.2462,-0.10812 -10.484,0.4698 -15.5805,1.71885 -0.8592,3.74953 -0.8592,7.64485 0,11.39437 4.309,-1.05147 8.7336,-1.55446 13.1687,-1.49706 7.4298,0 11.0893,3.02186 11.0893,9.17647 v 0.58219 c -2.2179,-0.2495 -4.8794,-0.47129 -6.7368,-0.47129 -12.3092,0 -22.8996,4.40803 -22.8996,16.273695 0,13.36273 9.5369,17.88167 23.3709,17.88167 6.8262,-0.0546 13.6075,-1.11002 20.1273,-3.13276 V 86.657845 c 0,-14.41623 -7.7904,-21.51344 -22.5393,-21.84612 m 8.6775,43.248675 c -2.0324,0.35988 -4.0907,0.55458 -6.1546,0.58219 -6.6259,0 -10.23,-1.96837 -10.23,-6.62592 0,-4.657545 3.6041,-6.515015 10.23,-6.515015 2.2179,0 4.7685,0.24951 6.1546,0.36041 z M 73.656595,77.564545 l -10.4794,6.016 v 36.040565 h 11.0893 c 1.026,0.0166 1.87,-0.80385 1.8852,-1.82976 V 78.978445 c 0.032,-0.88306 -0.6432,-1.63184 -1.5248,-1.69113 -0.3912,-0.008 -0.7734,0.11893 -1.0812,0.3604 m -21.8738,13.86175 V 118.3181 c 0,0.67371 0.5462,1.21984 1.2198,1.21984 h 7.2081 V 85.188505 l -7.1804,4.1308 c -0.7959,0.3939 -1.2848,1.21978 -1.2475,2.10699 m 7.6794,-65.8988 c -7.7582,0.0277 -15.5009,0.69415 -23.1491,1.9961 8.3528,-10.68412 21.1759,-16.90635 34.7374,-16.85589 10.0787,0.0529 19.8453,3.50053 27.7236,9.78639 1.2753,1.02578 2.245605,1.13666 3.216005,0.16635 0.9702,-0.97033 0.8594,-1.91292 -0.1941,-3.16048 -24.116405,-28.61393 -70.100605,-20.7868405 -83.392309,14.19444 -5.8136,1.77611 -11.4256995,4.15475 -16.7449995,7.09722 -1.35840001,0.74854 -1.85750001,1.71886 -1.35840001,2.77234 0.4895,1.04058 1.71530001,1.50638 2.77230001,1.0535 4.2971,-1.24757 8.6773995,-2.30105 13.2517995,-3.27137 -0.5214,2.45148 -0.7816,4.9513 -0.7762,7.45763 -0.2274,16.74391 8.240104,32.40926 22.372904,41.3912 1.3584,0.85943 2.5505,0.85943 3.3267,-0.19407 0.7763,-1.05349 0.6654,-2.02381 -0.499,-3.07731 -8.6799,-8.0119 -13.6068,-19.29346 -13.5845,-31.10578 -0.035,-5.71897 1.1163,-11.38308 3.3823,-16.63411 4.5743,-0.38813 9.5369,-0.66537 14.9984,-0.66537 35.4306,0.0555 65.455205,11.72705 65.455205,27.05816 0,7.76258 -9.8418,15.49744 -21.513405,20.68174 -2.7723,1.24756 -3.1051,2.10699 -2.7723,3.35454 0.3326,1.24756 1.6356,1.5248 3.1049,1.0535 20.432305,-6.70909 36.040605,-17.71533 36.040605,-31.02262 0,-18.10344 -29.192905,-32.07611 -66.176105,-32.07611 M 173.4058,65.033515 c -3.7226,-0.058 -7.4129,0.69915 -10.8122,2.21788 v -25.72743 c -4.3048,1.52055 -8.3387,3.72003 -11.9488,6.51503 -1.6621,1.19671 -2.5853,3.16917 -2.4396,5.21203 v 63.764065 c 6.1275,2.09559 12.5708,3.1179 19.046,3.02186 18.8243,-0.16633 29.581,-11.64387 29.581,-28.277975 0,-16.63411 -7.6794,-26.72546 -23.4818,-26.72546 m -5.2675,43.026885 c -1.8669,0.0843 -3.736,-0.112 -5.5446,-0.5822 V 78.618035 c 2.6123,-1.16657 5.4579,-1.71675 8.317,-1.60797 7.208,0 11.0893,4.99024 11.0893,14.38851 0,9.897285 -4.5466,16.634105 -13.8617,16.634105 m 65.5384,-42.527865 c -5.8369,-0.26116 -11.3831,2.55916 -14.6104,7.42989 -0.3348,-2.32773 -0.8823,-4.61992 -1.6357,-6.8477 -1.9406,-0.47025 -3.9376,-0.6662 -5.9327,-0.58219 -1.9473,-0.0277 -3.8913,0.16772 -5.7943,0.58219 v 52.674675 c 2.3762,0.44252 4.7918,0.63764 7.2081,0.58219 2.4054,1.9e-4 4.8066,-0.19461 7.1804,-0.58219 V 93.034255 c 0,-10.22997 5.3507,-15.6915 12.5588,-15.6915 1.5933,-0.0277 3.1867,0.0557 4.7685,0.24951 0.8304,-3.82923 0.9151,-7.7826 0.2495,-11.64388 -1.3421,-0.27224 -2.7062,-0.42076 -4.0755,-0.44357 m 279.3422,-0.69309 c -16.1628,0 -25.2283,11.0894 -25.2283,27.72352 0,16.634095 9.5368,27.418535 25.2283,27.418535 16.2737,0 25.3394,-10.78444 25.3394,-27.418535 0,-16.63412 -9.0657,-27.72352 -25.3394,-27.72352 m 0,43.442735 c -8.012,0 -10.4517,-6.4873 -10.4517,-15.802395 0,-9.3151 2.4397,-16.02418 10.4517,-16.02418 8.0122,0 10.5904,6.73681 10.5904,16.02418 0,9.758675 -2.7723,15.802395 -10.5904,15.802395 m -85.1943,-20.792625 -5.7943,-2.43968 c -3.3822,-1.38617 -5.3506,-2.55056 -5.3506,-4.76844 0,-3.38226 3.0219,-4.07536 6.9864,-4.07536 4.6183,-6.4e-4 9.2061,0.74824 13.5845,2.21789 0.6933,-3.57071 0.6933,-7.24147 0,-10.81217 -4.9759,-2.02246 -10.3239,-2.96733 -15.6915,-2.77235 -11.0895,0 -19.6283,6.04372 -19.6283,15.08159 0,8.15071 3.4655,12.22607 13.2518,16.16281 l 4.519,1.85747 c 4.2971,1.74659 5.5447,2.772345 5.5447,5.544695 0,4.18625 -4.1862,4.90707 -7.6517,4.90707 -5.3745,-0.0593 -10.6927,-1.10229 -15.6916,-3.07731 -0.9147,3.70552 -0.9147,7.57795 0,11.28347 5.6952,2.53065 11.9076,3.68007 18.1313,3.35455 11.0894,0 19.8777,-5.79422 19.8777,-16.24598 0,-8.594285 -3.7149,-12.669645 -11.9765,-16.162815 m 44.8844,20.543125 c -7.2082,0 -11.9766,-5.5447 -11.9766,-15.691515 0,-9.53688 3.8258,-15.6915 12.0875,-15.6915 3.1545,-0.025 6.2797,0.60831 9.1764,1.85747 1.0607,-3.65068 2.7904,-7.07254 5.1011,-10.09135 -4.9741,-2.58206 -10.535,-3.82418 -16.1351,-3.60406 -15.9409,0 -25.1174,11.25575 -25.1174,27.52944 0,16.855905 9.4259,27.529455 25.6997,27.529455 5.4749,0.19073 10.9096,-1.00098 15.8024,-3.46544 -2.4427,-3.01149 -4.3211,-6.43958 -5.5448,-10.11909 -2.8749,1.308 -6.022,1.90697 -9.1764,1.74659 M 372.2389,64.839445 c -15.5806,0 -25.1176,10.45176 -25.1176,27.88986 0,17.438085 10.1191,27.169035 27.4464,27.169035 5.5934,0.13224 11.1533,-0.89683 16.329,-3.02187 0.8044,-3.6527 0.8044,-7.43669 0,-11.0894 -4.8184,1.52862 -9.833,2.3504 -14.8874,2.43967 -8.0122,0 -13.5846,-3.02186 -14.7489,-11.505245 h 32.9633 c 0.4426,-2.41351 0.6377,-4.86589 0.5821,-7.31901 0,-15.69152 -8.8438,-24.5076 -22.4284,-24.5076 m -10.9229,21.26395 c 1.0534,-6.40413 4.8792,-10.22998 10.6735,-10.22998 6.515,0 9.0655,4.40804 9.3151,10.22998 z"
     id="path8-5"
     style="fill:#ce1c30;fill-opacity:1;stroke-width:2.77235126"
     inkscape:connector-curvature="0"
     sodipodi:nodetypes="cccscccccccscccccccscssccscccsscccccccccccsscccccccccccccccccsccccscccsccccccccscccccscccccccccscccccsssccssscccsccccsccsccccsccsccccscccccscccccccccscc"
     inkscape:export-filename="C:\Users\alex\sites\bradesco-seguros-logo-5.png"
     inkscape:export-xdpi="71.346344"
     inkscape:export-ydpi="71.346344" />
  <path
     class="cls-1"
     d="m 274.8064,154.9248 v 30.74479 c -2.4603,0.59181 -4.9826,0.88853 -7.5132,0.8839 -6.8407,0 -10.434,-3.68937 -10.434,-11.70224 V 154.9248 c -0.9748,-0.1914 -1.9657,-0.288 -2.9592,-0.28824 -1.057,-4.3e-4 -2.1119,0.0961 -3.1514,0.28824 v 20.08019 c 0,10.89519 5.7648,16.41002 16.1795,16.41002 4.7323,-0.0776 9.4345,-0.76867 13.9889,-2.05605 v -34.43414 c -1.0006,-0.19196 -2.0172,-0.28856 -3.036,-0.28826 -1.0316,-3e-4 -2.0609,0.0963 -3.0746,0.28826 m 30.1684,-0.28826 c -3.9226,0.0172 -7.5747,2.00227 -9.7231,5.28426 -0.077,-1.6766 -0.2696,-3.3459 -0.5765,-4.996 -0.8414,-0.21053 -1.7074,-0.30747 -2.5747,-0.28826 -0.8919,-1.8e-4 -1.7809,0.0965 -2.6519,0.28826 v 36.06748 c 0.9682,0.19195 1.953,0.28845 2.9401,0.28823 1.057,4.4e-4 2.1119,-0.0961 3.1513,-0.28823 v -20.40686 c 0,-6.53326 4.1313,-10.95283 9.3578,-10.95283 0.934,-0.0452 1.8699,0.0259 2.7864,0.21137 0.2076,-0.86202 0.3107,-1.74587 0.3074,-2.63252 4e-4,-0.76805 -0.076,-1.53415 -0.2306,-2.28664 -0.9192,-0.17295 -1.8511,-0.26938 -2.7862,-0.28826 m -92.7147,18.46612 c 0,10.51085 6.341,16.98649 15.3723,16.98649 2.9992,0.0382 5.9746,-0.53724 8.7431,-1.69096 v 2.72859 c 0,7.49404 -3.8431,10.58774 -10.7415,10.58774 -3.7117,0.02 -7.381,-0.78744 -10.7414,-2.36351 -0.1379,0.80621 -0.2086,1.62246 -0.2114,2.44038 0,0.837 0.074,1.67241 0.2114,2.498 3.5915,1.59617 7.484,2.40217 11.414,2.36352 10.2226,0 16.1794,-5.76465 16.1794,-16.19868 v -34.04987 c -3.696,-1.34419 -7.5965,-2.03975 -11.5293,-2.05603 -11.9136,0 -18.5429,7.95522 -18.5429,18.77352 m 23.9617,10.56854 c -2.4292,1.03508 -5.0458,1.5584 -7.6863,1.53724 -6.1681,0 -10.1457,-4.7078 -10.1457,-11.99049 0,-8.60854 4.4195,-13.96964 11.9905,-13.96964 1.9865,-0.075 3.9721,0.17158 5.8799,0.73019 z m 128.398,-12.95124 -3.5358,-1.61413 c -3.5356,-1.6141 -5.4379,-2.65171 -5.4379,-5.3803 0,-3.38196 3.305,-4.47722 6.9752,-4.47722 2.9361,0.0193 5.8474,0.53883 8.6086,1.53723 0.1537,-0.82379 0.2309,-1.66 0.2306,-2.49801 4e-4,-0.74261 -0.076,-1.48324 -0.2306,-2.20977 -2.9846,-1.22744 -6.1892,-1.82913 -9.4157,-1.76784 -6.6101,0 -12.2018,3.74703 -12.2018,9.28106 0,4.70781 1.9216,7.41722 8.4549,10.22266 l 2.7284,1.17214 c 4.1891,1.92155 5.7648,3.38195 5.7648,6.26426 0,3.84311 -3.6701,5.2266 -7.2058,5.2266 -3.5616,-0.004 -7.0875,-0.70822 -10.3763,-2.07525 -0.3843,1.59774 -0.3843,3.26378 0,4.86152 3.5098,1.57514 7.3401,2.30565 11.1833,2.13289 6.9176,0 12.5093,-3.84307 12.5093,-10.08811 0,-5.07288 -2.5749,-8.08974 -8.0898,-10.58773 M 192.5643,154.32913 c -9.6079,0 -15.7376,7.51324 -15.7376,18.69666 0,11.18344 6.3219,18.38922 17.2939,18.38922 3.5943,0.0382 7.1625,-0.61402 10.5108,-1.92154 0.1538,-0.77195 0.2311,-1.55717 0.2307,-2.34427 4e-4,-0.79348 -0.077,-1.58509 -0.2307,-2.36353 -3.2372,1.13472 -6.6385,1.73188 -10.0689,1.76782 -7.3594,0 -11.4139,-4.70778 -11.779,-12.35555 h 23.7695 c 0.1377,-1.32146 0.2081,-2.64901 0.2115,-3.97759 0,-9.78069 -5.7648,-15.89122 -14.1236,-15.89122 m -9.7806,15.37239 c 0.5189,-6.62936 4.5541,-10.60694 9.6078,-10.60694 5.4571,0 8.474,4.41954 8.474,10.60694 z m 145.1538,-15.37239 c -9.7806,0 -15.8911,6.84072 -15.8911,18.61981 0,11.77909 6.0336,18.54296 15.8143,18.54296 9.7807,0 15.9681,-6.99444 15.9681,-18.54296 0,-11.83674 -5.7646,-18.61981 -15.8913,-18.61981 m 0,32.22436 c -6.3219,0 -9.6076,-4.84227 -9.6076,-13.60455 0,-8.76225 3.4588,-13.68142 9.7037,-13.68142 6.2451,0 9.7231,4.63093 9.7231,13.68142 0,9.05048 -3.4011,13.60455 -9.7999,13.60455 m -164.696,-15.79511 -3.5356,-1.61409 c -3.5357,-1.61412 -5.438,-2.65177 -5.438,-5.38035 0,-3.38192 3.3049,-4.47723 6.9944,-4.47723 2.9361,0.0193 5.8474,0.53887 8.6086,1.53726 0.138,-0.8256 0.2086,-1.66101 0.2113,-2.49803 0,-0.74151 -0.074,-1.4812 -0.2113,-2.20977 -2.9872,-1.2186 -6.1901,-1.81995 -9.4156,-1.76782 -6.6294,0 -12.2211,3.74701 -12.2211,9.28109 0,4.70779 1.9216,7.41716 8.4548,10.22263 l 2.7286,1.17214 c 4.189,1.92156 5.7647,3.38194 5.7647,6.26427 0,3.84309 -3.6701,5.22661 -7.2058,5.22661 -3.5617,-0.004 -7.0876,-0.70825 -10.3764,-2.07527 -0.2114,0.79563 -0.3086,1.61735 -0.2882,2.44036 -1e-4,0.81563 0.096,1.62836 0.2882,2.42116 3.5099,1.57514 7.3401,2.30564 11.1834,2.13291 6.9175,0 12.5092,-3.84309 12.5092,-10.08813 0,-5.07291 -2.5748,-8.08973 -8.0897,-10.58774"
     id="path8-6"
     style="fill:#ce1c30;fill-opacity:1;stroke-width:1.92154944"
     inkscape:connector-curvature="0"
     sodipodi:nodetypes="cccscccscccccccccccccsccccccccscccccscccccscccccscccccsccsccccsccsccccccccccscccsssccsssccsscccccsccscccccsc"
     inkscape:export-filename="C:\Users\alex\sites\bradesco-seguros-logo-5.png"
     inkscape:export-xdpi="71.346344"
     inkscape:export-ydpi="71.346344" />
</svg>
