<?xml version="1.0" encoding="utf-8"?>
<!-- Generator: Adobe Illustrator 23.0.6, SVG Export Plug-In . SVG Version: 6.00 Build 0)  -->
<svg version="1.1" id="Layer_1" xmlns="http://www.w3.org/2000/svg" xmlns:xlink="http://www.w3.org/1999/xlink" x="0px" y="0px"
	 viewBox="0 0 100 20" style="enable-background:new 0 0 100 20;" xml:space="preserve">
<style type="text/css">
	.st0{fill:#1EA1F1;}
	.st1{fill:#7BB929;}
	.st2{fill:#FDBB00;}
	.st3{fill:#F65315;}
	.st4{fill-rule:evenodd;clip-rule:evenodd;fill:#0353D1;}
	.st5{fill:#727277;}
</style>
<g>
	<path class="st0" d="M11,19.8h4.2v-8.1c0-0.3,0-0.6,0.1-0.9c0.3-0.8,1-1.5,2.1-1.5c1.6,0,2.2,1.2,2.2,3v7.4h4.2v-8
		c0-4.1-2.1-5.9-4.7-5.9c-0.8,0-1.6,0.2-2.2,0.5c-0.6,0.4-1.2,0.8-1.7,1.4h-0.1V0H11V19.8z"/>
	<path class="st1" d="M28.6,0c-1.3,0-2.3,0.9-2.3,2.1s0.8,2.1,2.2,2.1c1.4,0,2.3-0.9,2.3-2.1C30.8,0.9,30,0,28.6,0"/>
	<rect x="26.5" y="6.2" class="st1" width="4.2" height="13.7"/>
	<path class="st2" d="M33.4,19.8h4.2V12c0-0.4,0.1-0.8,0.1-1.1c0.3-0.8,1-1.6,2.1-1.6c1.6,0,2.1,1.2,2.1,3v7.5h4.2v-8.1
		c0-4-2.1-5.9-4.9-5.9c-2.3,0-3.7,1.3-4.2,2.2H37V6.2h-3.8L33.4,19.8z"/>
	<path class="st3" d="M53.1,0h-4.2v19.8h4.2v-4.2l1.1-1.3l3.3,5.6h5.2l-5.7-8.1L62,6.2h-5.1l-2.8,4.1c-0.4,0.5-0.6,1.1-1,1.6H53
		L53.1,0L53.1,0z"/>
	<path class="st4" d="M2,1.1v3.7H0.4v3.4H2v6c0,2.1,0.4,3.5,1.1,4.4c0.6,0.8,1.6,1.3,2.8,1.3c1.1,0,2-0.1,2.5-0.4V16
		c-0.3,0.1-0.6,0.1-1.1,0.1c-1.1,0-1.5-0.8-1.5-2.6V8.1h2.8V4.7H5.8V0L2,1.1z"/>
	<path class="st5" d="M84.6,7.8c-1-1.1-2.4-1.7-3.9-1.7l0,0c-1.7,0-3.3,0.7-4.4,2.1c-1.1,1.3-1.8,3-1.8,4.9c0,1.9,0.6,3.6,1.8,4.9
		c1.2,1.3,2.8,2,4.6,2l0,0c1.8,0,3.5-0.8,4.8-2.3l0.1-0.1L84.6,16l-0.1,0.1c-1.1,1.2-2.3,1.8-3.6,1.8l0,0c-2.3,0-4-1.6-4.2-4.1h9.4
		v-0.1c0-0.1,0.1-0.8,0.1-1.6C86.2,10.4,85.6,8.9,84.6,7.8z M76.7,11.8c0.4-2.1,2-3.6,3.9-3.6l0,0c1.7,0,3.4,1.1,3.5,3.6H76.7z"/>
	<path class="st5" d="M73.2,13.8L73.2,13.8L73.2,13.8L73.2,13.8C73.2,13.8,73.2,13.8,73.2,13.8L73.2,13.8c-0.5-0.6-1.1-1-1.8-1.3
		c-0.2-0.1-0.4-0.1-0.6-0.2h-0.1c-0.8-0.1-1.5-0.3-2.4-0.4c-1.1-0.1-2-0.4-2.4-0.9c-0.4-0.5-0.4-1.1-0.4-1.3c0,0,0.4-1.8,3.1-1.6
		c2.5,0.2,3,2,3.1,2.4l0.5-0.1l1.6-0.2c-0.1-0.2-0.2-1.1-0.8-2C72.3,7.4,71,6.2,68.8,6c-3.5-0.3-5.2,1.8-5.4,3.3
		c-0.1,1.1,0.1,2.1,0.8,2.9c0.5,0.6,1.5,1.3,3.3,1.6c0.4,0.1,0.8,0.1,1.4,0.1c1.2,0.1,2.1,0.4,2.6,0.9c0.5,0.5,0.4,1.1,0.4,1.3
		c0,0-0.4,1.8-3.3,1.6c-2.7-0.2-3.3-2-3.3-2.4l-2.3,0.3c0.1,0.2,0.2,1.1,0.9,2c0.7,0.9,2.1,2.1,4.6,2.3c3.8,0.3,5.6-1.8,5.8-3.3
		C74.2,15.7,73.9,14.7,73.2,13.8z"/>
	<path class="st5" d="M99.6,12.3L99.6,12.3l-6.8-0.1l-0.6,2.3h5c-0.1,0.7-0.6,1.5-1.3,2.1c-0.6,0.5-1.5,1.1-2.6,1.1
		c-2.3,0-4.2-2.1-4.2-4.8c0-1.3,0.5-2.5,1.3-3.4c0.8-0.9,1.9-1.4,3-1.4c1.2,0,2.3,0.6,3.3,1.6l0.1,0.1L98,8.1L97.9,8
		c-1.1-1.3-2.8-2.1-4.5-2.1c-3.5,0-6.3,3.1-6.3,6.9s2.8,6.9,6.2,6.9c3.5,0,6.2-3.1,6.2-6.9C99.6,12.8,99.6,12.3,99.6,12.3z"/>
</g>
</svg>
