<?xml version="1.0" encoding="utf-8"?>
<!-- Generator: Adobe Illustrator 23.0.2, SVG Export Plug-In . SVG Version: 6.00 Build 0)  -->
<svg version="1.1" id="Camada_1" xmlns="http://www.w3.org/2000/svg" xmlns:xlink="http://www.w3.org/1999/xlink" x="0px" y="0px"
	 viewBox="0 0 1184 511" style="enable-background:new 0 0 1184 511;" xml:space="preserve">
<style type="text/css">
	.st0{clip-path:url(#SVGID_2_);}
	.st1{fill:#393F4E;}
</style>
<g>
	<defs>
		<rect id="SVGID_1_" width="1184" height="511"/>
	</defs>
	<clipPath id="SVGID_2_">
		<use xlink:href="#SVGID_1_"  style="overflow:visible;"/>
	</clipPath>
	<g id="Novo_logo_bidu" class="st0">
		<g id="novologo_bidu" transform="translate(-5.9 -39.599)">
			<path id="Path_184" class="st1" d="M1100.7,447.5c0,7.8-5,14.7-12.4,17.2c-20.2,6.4-41,11-62.1,13.7c-21,2.6-42.1,4-63.3,3.1
				c-24.6-1-48.7-4.3-71-15.9c-29.9-15.6-46.2-40.4-50.7-73.5c-1.1-9.1-1.7-18.3-1.6-27.5V213.8c0-5.7,4.6-10.3,10.3-10.3
				c0,0,0.1,0,0.1,0h44.6c5.7,0,10.4,4.6,10.4,10.4c0,0,0,0,0,0v157.9c0,8.1,1.2,16.2,3.4,24c5.8,20.2,19.5,32,39.9,35.2
				c27.1,4.4,54.9,2.3,81-6.3h0.1c3.6-1.2,6-4.5,6-8.3c-0.2-62.4-0.1-139.6-0.1-202.5c0-5.7,4.6-10.3,10.3-10.3c0,0,0.1,0,0.1,0
				h44.6c5.7,0,10.4,4.6,10.4,10.4c0,0,0,0,0,0L1100.7,447.5z"/>
			<path id="Path_185" class="st1" d="M401.4,142.9c0.1-19.4,15.9-35.1,35.4-35c19.4,0.1,35.1,15.9,35,35.3
				c-0.1,19-16.1,34.7-35.2,34.7C417.3,177.8,401.4,162.1,401.4,142.9z"/>
			<path id="Path_186" class="st1" d="M96,451.3c0,7.9,5.1,14.9,12.6,17.2c0.1,0,0.1,0,0.2,0.1c24.7,7.1,50,10.9,75.7,12.4
				c28.6,1.6,56.9,0.4,84.4-8c37.6-11.5,65.5-34.1,79.8-71.5c7.6-19.9,9.8-40.7,9.8-61.9c-0.1-26.3-3.9-51.7-16.7-75.2
				c-9.5-17.4-22-31.8-39.7-41.8c-20.3-11.5-41.8-18.6-65.1-20.3c-23.6-1.8-46.9-0.9-69.8,5.9c-6,1.8-4.3,1.3-6,1.8v-91.9
				c0-5.7-4.6-10.4-10.4-10.4c0,0,0,0,0,0h-44.5c-5.7,0-10.4,4.6-10.4,10.4c0,0,0,0,0,0L96,451.3z M285.4,384.9
				c-8.8,25.7-28,41.1-56.2,45.9c-20.5,3.4-41.5,2.7-61.7-2.3c-0.4-0.1-0.8-0.2-1.1-0.3c-3.1-0.7-5.3-3.5-5.2-6.7V315.2
				c0-14.7,0.1-29.7,0-43.4c0-3,2-5.7,4.8-6.6h0.2c23.8-7.3,47.8-8.1,71.8-1.2c22.3,6.3,37.5,20.7,45.6,40.9
				C294.2,331.1,294.5,358.2,285.4,384.9z"/>
			<path id="Path_187" class="st1" d="M785.8,450.6V118c0-5.7-4.6-10.4-10.4-10.4c0,0,0,0,0,0h-44.6c-5.7,0-10.4,4.6-10.4,10.4
				c0,0,0,0,0,0v92c-3.2-1,0.1,0-5.9-1.8c-22.9-6.8-46.2-7.6-69.8-5.9c-23.3,1.7-44.8,8.8-65.1,20.3c-17.6,10-30.2,24.4-39.7,41.8
				c-12.8,23.5-16.7,48.9-16.7,75.2c0,21.2,2.2,42,9.8,61.9c14.4,37.5,42.2,60.1,79.8,71.5c27.6,8.4,55.9,9.6,84.4,8
				c21.5-1.2,51.5-6.5,75.2-13C780.3,465.9,785.8,458.8,785.8,450.6z M652.6,430.9c-28.2-4.8-47.4-20.3-56.2-45.9
				c-9.1-26.6-8.8-53.7,1.8-80c8.1-20.2,23.3-34.5,45.6-40.9c24-6.8,47.9-6,71.8,1.2h0.1c2.9,0.9,4.9,3.6,4.9,6.6l0.1,149.7
				c0,3.2-2.1,5.9-5.2,6.7c-0.3,0.1-0.7,0.2-1.1,0.3C694.2,433.6,673.1,434.3,652.6,430.9z"/>
			<path id="Path_188" class="st1" d="M422.2,481.7h29c10,0,18.1-8.1,18.1-18.1l0,0l-0.1-249.7c0-5.7-4.6-10.4-10.4-10.4
				c0,0,0,0,0,0h-44.5c-5.7,0-10.4,4.6-10.4,10.4c0,0,0,0,0,0l0.1,249.7C404.1,473.6,412.2,481.7,422.2,481.7z"/>
		</g>
	</g>
</g>
</svg>
