<svg height="511pt" viewBox="0 -11 511.99833 511" width="511pt" xmlns="http://www.w3.org/2000/svg"><path d="m502.03125 189.253906-16.964844 16.773438-21.742187 22.628906c-21.632813 20.171875-21.644531 19.527344-22.359375 22.8125-14.625 66.523438-13.347656 61.90625-14.644532 63.769531l-36.050781 51.785157c-1.390625 1.996093-3.597656 3.253906-6.027343 3.445312-53.246094 4.09375-50.945313 3.308594-53.726563 5.738281-25.527344 22.246094-25.597656 21.46875-26.199219 25.382813-4.496094 29.605468-3.921875 29.191406-6.382812 31.691406-15.316406 15.523438-5.898438 5.980469-45.875 46.480469-3.136719 3.1875-8.257813 3.226562-11.441406.089843l-32.5-31.984374c-3.5-3.4375-3.164063-9.164063.707031-12.167969l33.03125-25.695313c2.710937-2.105468 3.800781-5.695312 2.710937-8.949218l-3.011718-11.109376c-12.578126-35.285156-9.585938-26.671874-14.75-42.1875-1.078126-3.214843-4.042969-5.421874-7.429688-5.535156l-9.324219-.300781c-4.0625-.132813-7.398437-3.257813-7.800781-7.308594l-5.707031-58.234375c-.410157-4.152344-3.898438-7.320312-8.0625-7.320312-2.148438 0-8.789063.796875-10.777344-5.734375l-6.996094-22.984375c-.765625-2.527344-2.71875-4.515625-5.230469-5.339844l-34.265624-11.210938c-1.359376-.453124-12.449219-7.296874-13.144532-7.742187.011719 0 .023438 0 .03125.011719-.007812-.011719-.03125-.023438-.039062-.023438-4.90625-3.015625-3.808594-7.792968-3.476563-13.457031.359375-6.058594-5.820312-10.339844-11.363281-7.882813-32.167969 14.234376-30.5625 13.890626-33.273438 13.722657l-12.761718-.828125c-4.15625-.273438-7.429688-3.640625-7.582032-7.800782l-.070312-2.179687c-.191406-5.492187-5.695312-9.214844-10.867188-7.328125-3.105468 1.128906-6.613281.261719-8.839843-2.246094l-20.230469-22.90625c-1.957031-2.207031-2.550781-5.3125-1.5625-8.082031l7.527344-21.070313c.957031-2.691406 3.265625-4.675781 6.058594-5.21875 31.207031-6.128906 29.660156-5.765624 30.566406-6.101562 2.941406-1.015625 5.078125-3.65625 5.402344-6.824219 4.625-45.574219 4.496093-42.628906 4.101562-44.414062l-4.285156-19.484375c-.996094-4.578125 2.066406-9.042969 6.695312-9.75l19.808594-3.011719c2.742188-.414063 5.503906.59375 7.328125 2.691406l11.964844 13.730469c2.519531 2.902344 6.734375 3.628906 10.082031 1.730469l16.25-9.160157c3.355469-1.894531 4.90625-5.886718 3.71875-9.558593l-5-15.363281c-1.53125-4.707032 1.480469-9.6875 6.371094-10.503907l39.421875-6.5625c3.933593-.652343 7.753906 1.644531 9.015625 5.425781l11.136718 33.417969c1.332032 3.96875 5.464844 6.277344 9.535157 5.332031l21.199219-4.972656c5.546874-1.289062 6.332031-6.992187 6.25-6.992187.957031-4.546875 5.554687-7.359375 10.050781-6.132813l22.480469 6.171875c3.277343.90625 6.761718-.332031 8.738281-3.09375l5.746093-8.046875c3.75-5.261718 11.855469-4.222656 14.152344 1.816406 12.863282 33.617188 12.148438 33.828126 15.949219 35.734376 27.128906 13.558593 15.683594 7.917968 50.191406 24.726562 28.40625 14.597656 27.328125 14.488281 30.28125 14.34375 41.972657-2.035156 41.207031-2.730469 44.464844.042969 46.742187 39.757812 44.132813 38.507812 48.246094 38.507812h11.1875c4.101562 0 7.558593 3.074219 8.042969 7.144531l3.671874 30.9375c.292969 2.480469-.574218 4.960938-2.351562 6.714844zm0 0" fill="#1ab975"/><path d="m502.03125 189.253906-16.964844 16.773438-21.742187 22.628906c-21.632813 20.171875-21.644531 19.527344-22.359375 22.8125-14.625 66.523438-13.347656 61.90625-14.644532 63.769531l-36.050781 51.785157c-1.390625 1.996093-3.597656 3.253906-6.027343 3.445312-53.246094 4.09375-50.945313 3.308594-53.726563 5.738281-25.527344 22.246094-25.597656 21.46875-26.199219 25.382813-4.496094 29.605468-3.921875 29.191406-6.382812 31.691406l-11.835938 11.996094-28.082031-27.652344c-3.5-3.4375-3.164063-9.160156.703125-12.167969l33.035156-25.691406c7.070313-5.492187 1.492188-12.632813-15.058594-62.25-1.070312-3.214844-4.035156-5.421875-7.421874-5.53125l-9.324219-.304687c-4.070313-.128907-7.40625-3.253907-7.800781-7.308594l-5.714844-58.234375c-.402344-4.152344-3.890625-7.308594-8.054688-7.308594-2.15625 0-8.789062.785156-10.785156-5.746094l-6.988281-22.984375c-.773438-2.519531-2.722657-4.515625-5.230469-5.339844l-34.273438-11.210937c-1.351562-.441406-12.441406-7.296875-13.136718-7.742187.011718 0 .023437 0 .03125.011718-.007813-.011718-.03125-.019531-.039063-.019531-4.90625-3.019531-3.808593-7.753906-3.480469-13.457031.363282-6.058594-5.816406-10.34375-11.359374-7.882813-32.167969 14.230469-30.5625 13.890625-33.273438 13.71875l-12.773438-.828125c-4.152343-.261718-7.429687-3.636718-7.570312-7.800781l-.070312-2.179687c-.191407-5.492188-5.695313-9.210938-10.867188-7.328126-3.105469 1.128907-6.621094.261719-8.839844-2.246093l-27.539062-33.136719c2.941406-1.015625 5.078125-3.65625 5.402344-6.824219 4.625-45.574219 4.496093-42.628906 4.101562-44.414062l-4.285156-19.484375c-.996094-4.578125 2.066406-9.042969 6.695312-9.75l19.808594-3.011719c2.742188-.414063 5.503906.59375 7.328125 2.691406l11.964844 13.730469c2.519531 2.902344 6.734375 3.628906 10.082031 1.730469l16.25-9.160157c3.355469-1.894531 4.90625-5.886718 3.71875-9.558593l-5-15.363281c-1.53125-4.707032 1.480469-9.6875 6.371094-10.503907l39.421875-6.5625c3.933593-.652343 7.753906 1.644531 9.015625 5.425781l11.136718 33.417969c1.332032 3.96875 5.464844 6.277344 9.535157 5.332031l21.199219-4.972656c5.546874-1.289062 6.332031-6.992187 6.25-6.992187.957031-4.546875 5.554687-7.359375 10.050781-6.132813l22.480469 6.171875c3.277343.90625 6.761718-.332031 8.738281-3.09375l5.746093-8.046875c3.75-5.261718 11.855469-4.222656 14.152344 1.816406 12.863282 33.617188 12.148438 33.828126 15.949219 35.734376 27.128906 13.558593 15.683594 7.917968 50.191406 24.726562 28.40625 14.597656 27.328125 14.488281 30.28125 14.34375 41.972657-2.035156 41.207031-2.730469 44.464844.042969 46.742187 39.757812 44.132813 38.507812 48.246094 38.507812h11.1875c4.101562 0 7.558593 3.074219 8.042969 7.144531l3.671874 30.9375c.292969 2.480469-.574218 4.960938-2.351562 6.714844zm0 0" fill="#1ed688"/><path d="m209.808594 349.476562 9.328125.300782c.222656.007812.421875.15625.492187.367187l4.050782 12.152344c1.320312 3.960937 5.601562 6.101563 9.5625 4.78125 3.960937-1.320313 6.101562-5.601563 4.78125-9.5625l-4.050782-12.148437c-2.0625-6.191407-7.828125-10.492188-14.351562-10.703126-9.207032-.296874-9.769532-.015624-9.847656-.789062l-5.707032-58.242188c-.765625-7.792968-7.195312-14.371093-16.433594-14.113281-.570312.011719-2.019531.054688-2.617187-.167969-.070313-.160156-7.027344-23.042968-7.078125-23.210937-1.484375-4.882813-5.265625-8.738281-10.109375-10.324219-39.972656-13.082031-31.445313-9.453125-45.792969-18.214844h-.003906c-.171875-.105468-.269531-.292968-.257812-.492187l.359374-6.089844c.6875-11.714843-11.265624-19.984375-21.972656-15.238281-19.183594 8.488281-27.476562 12.296875-29.742187 13.085938-12.925781-.832032-13.230469-.542969-13.257813-1.34375l-.074218-2.171876c-.171876-4.992187-2.75-9.644531-6.890626-12.4375-4.140624-2.796874-9.417968-3.445312-14.113281-1.738281-.160156.054688-.410156.050781-.589843-.152343l-20.234376-22.898438c-.132812-.148438-.171874-.355469-.105468-.539062l7.519531-21.0625c.066406-.179688.222656-.3125.40625-.351563l29.464844-5.785156c6.8125-1.339844 11.859375-6.878907 12.5625-13.789063 5.386719-53.140625 5.800781-38.421875-.316407-66.289062-.191406-.921875-.128906-.5625 20.253907-3.664063.1875-.023437.367187.042969.488281.179688l11.960938 13.734375c4.859374 5.582031 13.0625 6.988281 19.503906 3.355468l16.242187-9.160156c6.472657-3.652344 9.496094-11.425781 7.199219-18.488281l-5-15.363281c-.3125-.921875.054688-.636719 39.847656-7.269532.707032-.125-.128906-1.832031 11.738282 33.777344 2.578124 7.726563 10.503906 12.152344 18.429687 10.296875l21.195313-4.960937c7.804687-1.828125 11.328124-8.523438 11.976562-12.960938.367188-.59375-.59375-.566406 23.085938 5.933594 6.300781 1.730469 13.089843-.679688 16.886718-6l5.746094-8.042969c.261719-.371093.792969-.28125.945312.121094 13.230469 34.605469 12.761719 36.367187 19.625 39.796875l22.082032 11.042969c3.738281 1.871093 8.277344.355469 10.144531-3.378907 1.867187-3.734374.355469-8.277343-3.382813-10.144531-5.960937-2.980469-20.628906-10.316406-22.089843-11.046875-1.390625-2.523437-4.941407-12.539062-12.253907-31.667968-4.457031-11.652344-20.125-13.660157-27.371093-3.507813l-5.746094 8.042969c-.132813.183594-.367187.265625-.582031.207031l-22.480469-6.171875c-4.175781-1.144531-8.683594-.5-12.371094 1.773438-4.269531 2.636718-5.921875 6.015624-7.132812 10.257812 0 .367188-.144531.9375-.527344 1.027344-22.175781 5.1875-21.578125 5.367187-21.832031 4.605468l-11.140625-33.417968c-2.453125-7.359375-9.785157-11.773438-17.433594-10.496094l-39.421875 6.570312c-9.453125 1.574219-15.277344 11.195313-12.316406 20.296876l5 15.359374c.222656.6875.488281.222657-16.492188 9.800782-.222656.125-.503906.078125-.671875-.113282l-11.960937-13.738281c-3.539063-4.066406-8.835938-6.007812-14.164063-5.195312l-19.804687 3.011719c-4.265625.648437-8.113282 3.0625-10.554688 6.617187s-3.3125 8.011719-2.386718 12.222656l4.265624 19.433594c-.125 2.359375-1.1875 12.121094-4.226562 42.085937-.0625.625 1.546875.089844-29.898438 6.265626-5.386718 1.058593-9.878906 4.929687-11.730468 10.101562l-7.523438 21.0625c-1.914062 5.371094-.761718 11.363281 3.015625 15.636719l20.234375 22.902343c4.292969 4.851563 10.996094 6.5625 17.089844 4.347657.359375-.128907.710938.125.722656.488281l.078125 2.171875c.273438 8.082031 6.570313 14.570313 14.640625 15.085937 20.792969 1.34375 10.820313 3.628907 49.585938-13.527343.371094-.167969.785156.109375.757812.527343-.339844 5.78125-1.96875 14.839844 7.132813 20.382813l.011719-.019531-.011719.019531c16.164062 9.871094 6.3125 5.714844 48.957031 19.671875.164062.054688.296875.1875.347656.355469l6.992188 22.980469c2.609375 8.570312 9.277344 11.101562 18.011718 11.101562.761719 0 .183594-3.117188 6.25 58.726562.765626 7.800782 7.25 13.871094 15.082032 14.125zm0 0"/><path d="m458.164062 223.125c-22.335937 20.835938-23.28125 20.773438-24.585937 26.71875-9.523437 43.324219-12.617187 57.941406-13.511719 61.144531-.226562.324219-36.007812 51.910157-36.402344 51.941407-55.402343 4.265624-53.144531 3.203124-58.121093 7.582031-26.390625 23.011719-27.617188 22.839843-28.699219 29.941406-2.527344 16.617187-3.652344 25.167969-4.277344 27.503906 0 0-45.835937 46.445313-45.886718 46.496094-.210938.210937-.550782.214844-.761719.003906l-32.5-31.980469c-.769531-.746093-1.644531.5 33.078125-26.503906 5.167968-4.019531 7.285156-10.855468 5.320312-17.078125l-2.96875-10.933593c-1.09375-4.03125-5.246094-6.414063-9.277344-5.316407-4.03125 1.09375-6.410156 5.25-5.316406 9.277344.09375.339844 3.03125 11.183594 3.140625 11.519531.070313.214844 0 .453125-.179687.59375l-33.035156 25.695313c-7.472657 5.8125-8.113282 16.882812-1.371094 23.523437l32.5 31.980469c6.148437 6.050781 16.078125 5.976563 22.132812-.160156l45.875-46.484375c5.824219-5.90625 4.117188-11.886719 8.480469-35.878906 1.832031-2.042969 9.359375-8.320313 23.648437-20.777344 3.433594-.632813 17.15625-1.449219 49.375-3.929688 4.710938-.359375 8.957032-2.792968 11.652344-6.667968l36.03125-51.75c2.25-2.910157 1.550782-1.46875 15.839844-66.496094 1.550781-1.800782 8.007812-7.59375 20.132812-18.90625 3.054688-2.851563 3.21875-7.636719.371094-10.6875-2.847656-3.050782-7.628906-3.21875-10.683594-.371094zm0 0"/><path d="m508.21875 150.714844c-.933594-7.878906-7.621094-13.816406-15.550781-13.816406h-11.140625c-3.292969-2.21875-15.109375-12.644532-43.390625-36.707032-6.128907-5.214844-8.34375-3.839844-49.730469-1.835937-2.164062-.867188-9.859375-4.984375-26.46875-13.519531-3.710938-1.910157-8.269531-.445313-10.179688 3.269531-1.910156 3.710937-.445312 8.269531 3.269532 10.179687 29.332031 15.078125 28.742187 15.4375 34.105468 15.171875 25.03125-1.210937 35.667969-1.996093 39.230469-1.726562 45.0625 38.335937 45.59375 40.292969 52.445313 40.292969 11.957031-.003907 12.300781-.308594 12.394531.472656.046875.402344 3.800781 31.097656 3.511719 31.378906l-16.96875 16.78125c-4.820313 4.765625-1.378906 12.933594 5.3125 12.933594 4.082031 0 3.964844-.847656 22.285156-18.960938 2.957031-2.921875 4.652344-6.980468 4.652344-11.136718.003906-1.292969.21875.90625-3.777344-32.777344zm0 0"/></svg>