<?xml version="1.0" encoding="utf-8"?>
<!-- Generator: Adobe Illustrator 23.0.6, SVG Export Plug-In . SVG Version: 6.00 Build 0)  -->
<svg version="1.1" id="Camada_1" xmlns="http://www.w3.org/2000/svg" xmlns:xlink="http://www.w3.org/1999/xlink" x="0px" y="0px"
	 viewBox="0 0 700 385.4" style="enable-background:new 0 0 700 385.4;" xml:space="preserve">
<style type="text/css">
	.st0{fill:#00D7CE;}
	.st1{fill:#FE7B00;}
</style>
<g>
	<g>
		<path class="st0" d="M455.3,124.6h-17.5c-1.3,0-2.3,1-2.3,2.3c0,1.3,1,2.3,2.3,2.3h17.5c1.3,0,2.3-1,2.3-2.3
			C457.6,125.6,456.6,124.6,455.3,124.6z"/>
	</g>
	<path class="st0" d="M564.6,158.8l-23.9-29.9l-1.7-2.6l-4.1-8.7l-25.9-71.2c-4.3-11.8-15.6-19.8-28.2-19.8H219.3
		c-12.6,0-23.9,7.9-28.2,19.8l-25.9,71.2l-3.9,8.8l-0.1,0.3l-25.7,32.2c-5.5,6.9-8.5,15.5-8.5,24.2v163.2c0,6.9,5.6,12.5,12.5,12.5
		h26.3c6.9,0,12.5-5.6,12.5-12.5v-40.2h343.6v40.2c0,6.9,5.6,12.5,12.5,12.5h26.3c6.9,0,12.5-5.6,12.5-12.5V183.1
		C573.1,174.3,570,165.7,564.6,158.8z M529.2,306.1H543c5.6,0,11-1.5,15.7-4.5l6.9-4.3v48.9c0,2.8-2.3,5.1-5.1,5.1h-26.3
		c-2.8,0-5.1-2.3-5.1-5.1V306.1z M446.5,263.6h-193c-6.9,0-12.5,5.6-12.5,12.5v22.6h-84c-12.5,0-22.6-10.2-22.6-22.6v-93
		c0-7.1,2.4-14.1,6.9-19.6l26.3-32.9h365l26.3,32.9c4.4,5.6,6.9,12.5,6.9,19.6v93c0,12.5-10.2,22.6-22.6,22.6h-84v-22.6
		C459,269.2,453.4,263.6,446.5,263.6z M490.4,123.2H171L198,49c3.2-8.9,11.8-14.9,21.3-14.9h261.5c9.5,0,18,6,21.3,14.9l27,74.2
		H490.4z M248.4,276.1c0-2.8,2.3-5.1,5.1-5.1h193c2.8,0,5.1,2.3,5.1,5.1v22.6H248.4V276.1z M170.8,306.1l0,40.2
		c0,2.8-2.3,5.1-5.1,5.1h-26.3c-2.8,0-5.1-2.3-5.1-5.1v-48.9l6.9,4.3c4.7,2.9,10.2,4.5,15.7,4.5H170.8z"/>
	<g>
		<path class="st0" d="M192.1,246c-6.9,0-12.5,5.6-12.5,12.5c0,6.9,5.6,12.5,12.5,12.5c6.9,0,12.5-5.6,12.5-12.5
			C204.5,251.6,198.9,246,192.1,246z"/>
		<path class="st0" d="M507.9,246c-6.9,0-12.5,5.6-12.5,12.5c0,6.9,5.6,12.5,12.5,12.5c6.9,0,12.5-5.6,12.5-12.5
			C520.4,251.6,514.8,246,507.9,246z"/>
	</g>
	<g>
		<path class="st1" d="M444.1,184.6H256c-3.9,0-7.4,1.7-9.8,4.8c-2.4,3-3.2,6.9-2.3,10.7l4.4,17.6c1.4,5.6,6.4,9.4,12.1,9.4h179.3
			c5.7,0,10.7-3.9,12.1-9.4l4.4-17.6c0.9-3.8,0.1-7.7-2.3-10.7C451.5,186.4,447.9,184.6,444.1,184.6z M449,198.3l-4.4,17.6
			c-0.5,2.3-2.6,3.8-4.9,3.8H260.3c-2.4,0-4.4-1.6-4.9-3.9l-4.4-17.5c-0.4-1.5,0-3.1,0.9-4.4c1-1.2,2.4-1.9,4-1.9h188.1
			c1.6,0,3,0.7,4,2C449,195.2,449.4,196.8,449,198.3z"/>
		<path class="st1" d="M160.4,106L160.4,106c-1.6-10.2-10.6-17.9-21-17.9h-8.8c-11.7,0-21.2,9.5-21.2,21.3
			c0,11.7,9.5,21.2,21.2,21.2h8.8c3.3,0,6.4-0.7,9.3-2.2l14.2-6.9L160.4,106z M153.3,109.3c0,7.6-6.2,13.9-13.9,13.9h-8.8
			c-7.6,0-13.9-6.2-13.9-13.9c0-7.6,6.2-13.9,13.9-13.9h8.8C147.1,95.5,153.3,101.7,153.3,109.3z"/>
		<path class="st1" d="M584.4,94.3c-4-4-9.3-6.2-15-6.2h-8.8c-10.3,0-19.3,7.7-21,17.9l-2.5,15.5l14.2,7c2.9,1.4,6,2.2,9.3,2.2h8.8
			c11.7,0,21.2-9.5,21.2-21.2C590.6,103.7,588.4,98.3,584.4,94.3z M583.2,109.3c0,7.6-6.2,13.9-13.9,13.9h-8.8
			c-7.6,0-13.9-6.2-13.9-13.9c0-7.6,6.2-13.9,13.9-13.9h8.8C577,95.5,583.2,101.7,583.2,109.3z"/>
		<path class="st1" d="M187.7,175.8c-14.1,0-25.6,11.5-25.6,25.6c0,14.1,11.5,25.6,25.6,25.6s25.6-11.5,25.6-25.6
			C213.3,187.3,201.8,175.8,187.7,175.8z M205.9,201.5c0,10.1-8.2,18.2-18.2,18.2s-18.2-8.2-18.2-18.2s8.2-18.2,18.2-18.2
			S205.9,191.4,205.9,201.5z"/>
		<path class="st1" d="M512.3,175.8c-14.1,0-25.6,11.5-25.6,25.6c0,14.1,11.5,25.6,25.6,25.6c14.1,0,25.6-11.5,25.6-25.6
			C538,187.3,526.5,175.8,512.3,175.8z M530.6,201.5c0,10.1-8.2,18.2-18.2,18.2s-18.2-8.2-18.2-18.2s8.2-18.2,18.2-18.2
			S530.6,191.4,530.6,201.5z"/>
	</g>
</g>
</svg>
