<?xml version="1.0" encoding="utf-8"?>
<!-- Generator: Adobe Illustrator 24.0.3, SVG Export Plug-In . SVG Version: 6.00 Build 0)  -->
<svg version="1.1" id="Camada_1" xmlns="http://www.w3.org/2000/svg" xmlns:xlink="http://www.w3.org/1999/xlink" x="0px" y="0px"
	 viewBox="0 0 300 300" style="enable-background:new 0 0 300 300;" xml:space="preserve">
<style type="text/css">
	.st0{fill:#00D7CE;}
	.st1{fill:#FE7B00;}
</style>
<g>
	<path class="st0" d="M66.6,234.4c0.8,0,1.4-0.6,1.4-1.4c0-0.8-0.6-1.4-1.4-1.4s-1.4,0.6-1.4,1.4C65.1,233.8,65.8,234.4,66.6,234.4z
		"/>
	<path class="st0" d="M249.6,48.6h-32.4c-0.8,0-1.4,0.6-1.4,1.4v6.9l-8.1-0.1c-0.8,0-1.4,0.6-1.4,1.4c0,0.4,0.1,0.7,0.4,1
		c0.3,0.3,0.6,0.4,1,0.4l8.1,0v46.1l-1.2,0.8c-11.7,7.4-22.4,3.1-32.7-1c-6.3-2.6-12.9-5.2-19.1-4.4c-2.1,0.3-8,1.1-14.2,2l-0.1,0
		c-5.8,0.8-11.9,1.7-14,2c-1.8,0.2-3.5-0.3-4.9-1.4c-1.4-1.1-2.3-2.7-2.6-4.5c-0.4-3.1,1.6-5.5,6.3-7.7c10.9-5,22.5-9.4,31.8-11.9
		c0.8-0.2,1.2-1,1-1.7c-0.2-0.8-1-1.2-1.7-1c-9.5,2.5-21.3,6.9-32.3,12c-3.1,1.4-5.3,3.1-6.6,5.1l-0.5,0.8l-41.6,11.3
		c-6,1.5-9.3-1.4-10.2-4.3c-1-3,0.1-7,4.7-8.9c3.1-1.2,10.6-4.5,20-8.6l0.4-0.2c12.7-5.6,28.5-12.5,41-17.6
		c15.3-6.2,20.3-7.2,35.9-7.1c0.8,0,1.4-0.6,1.4-1.4c0-0.8-0.6-1.4-1.4-1.4c-16.1-0.1-21.3,1-37,7.3c-12.7,5.1-28.5,12.1-41.2,17.7
		L97,81.7c-9.2,4-17.1,7.5-20.1,8.7l0,0c-4.6,1.8-8.2,6.6-6.4,12.4c1.4,4.4,6.2,8.1,13.6,6.2l0,0l39.7-10.8l0.6,2.6
		c0.5,2.1,1.7,3.9,3.4,5.2c2,1.6,4.5,2.3,7,1.9c2-0.3,7.4-1,13.1-1.9l1.1-0.2c5.8-0.8,11.9-1.7,14-2c5.5-0.7,11.4,1.7,17.7,4.2
		c6.1,2.5,13,5.3,20.3,5.3c0,0,0,0,0,0c3.8,0,7.4-0.8,10.9-2.3l3.7-1.6v5.3c0,0.8,0.6,1.4,1.4,1.4h32.4c0.8,0,1.4-0.6,1.4-1.4V50
		C251,49.2,250.4,48.6,249.6,48.6z M248.2,113.3h-29.6v-62h29.6V113.3z"/>
	<path class="st0" d="M233.4,67.6c0.8,0,1.4-0.6,1.4-1.4c0-0.8-0.6-1.4-1.4-1.4c-0.8,0-1.4,0.6-1.4,1.4
		C232,67,232.6,67.6,233.4,67.6z"/>
	<path class="st1" d="M121.6,175.3c8.4,0,16.3-4.1,21.1-11l0.8-1.1h16.3c0.4,0,0.7-0.1,1-0.4l7.7-7.7h6.9l7.7,7.7
		c0.3,0.3,0.6,0.4,1,0.4h6.3c0.4,0,0.7-0.1,1-0.4l12.1-12.1c0.3-0.3,0.4-0.6,0.4-1v-12.1c0-0.8-0.6-1.4-1.4-1.4h-59.1l-0.8-1.1
		c-4.8-6.9-12.7-11-21.1-11c-14.2,0-25.7,11.5-25.7,25.7C95.9,163.8,107.5,175.3,121.6,175.3z M146.3,142.2l-1-3.4h55.9V149
		l-11.3,11.3h-5.2l-7.7-7.7c-0.3-0.3-0.6-0.4-1-0.4h-8.1c-0.4,0-0.7,0.2-1,0.4l-7.7,7.7h-14l1-3.4c0.7-2.4,1.1-4.9,1.1-7.3
		C147.3,147.1,147,144.6,146.3,142.2z M121.6,126.7c12.6,0,22.9,10.3,22.9,22.9c0,12.6-10.3,22.9-22.9,22.9s-22.9-10.3-22.9-22.9
		C98.8,137,109,126.7,121.6,126.7z"/>
	<path class="st1" d="M113.5,148.2c-0.8,0-1.4,0.6-1.4,1.4c0,0.8,0.6,1.4,1.4,1.4s1.4-0.6,1.4-1.4
		C114.9,148.8,114.3,148.2,113.5,148.2z"/>
	<path class="st0" d="M191.5,59.5L191.5,59.5c0.8,0,1.4-0.6,1.4-1.4s-0.6-1.4-1.4-1.4c-0.8,0-1.4,0.6-1.4,1.4S190.7,59.5,191.5,59.5
		z"/>
	<path class="st0" d="M215.8,190.2L215.8,190.2l-39.7,10.8l-0.6-2.6c-0.5-2.1-1.7-3.9-3.4-5.2c-2-1.6-4.5-2.3-7-1.9
		c-2,0.3-7.4,1-13.2,1.9l-1,0.1c-5.9,0.9-12,1.7-14.1,2c-5.5,0.7-11.4-1.7-17.7-4.2c-9.3-3.7-19.8-8-31.2-2.9l-3.7,1.6v-5.3
		c0-0.8-0.6-1.4-1.4-1.4H50.4c-0.8,0-1.4,0.6-1.4,1.4v64.8c0,0.8,0.6,1.4,1.4,1.4h32.4c0.8,0,1.4-0.6,1.4-1.4v-6.9l8.1,0.1
		c0.8,0,1.4-0.6,1.4-1.4c0-0.4-0.1-0.7-0.4-1c-0.3-0.3-0.6-0.4-1-0.4l-8.1,0v-46.1l1.2-0.8c11.7-7.4,22.4-3.1,32.7,1
		c6.3,2.6,12.9,5.2,19.1,4.4c2.2-0.3,8.3-1.2,14.2-2c6.2-0.9,12-1.7,14.1-2c1.8-0.2,3.5,0.3,4.9,1.4c1.4,1.1,2.3,2.7,2.6,4.5
		c0.4,3.1-1.6,5.5-6.3,7.7c-10.9,5-22.5,9.4-31.8,11.9c-0.8,0.2-1.2,1-1,1.7c0.2,0.8,1,1.2,1.7,1c9.5-2.5,21.3-6.9,32.3-12
		c3.1-1.4,5.3-3.1,6.6-5.1l0.5-0.8l41.6-11.3c6-1.5,9.3,1.4,10.2,4.3c1,3-0.1,7-4.7,8.9c-3.1,1.2-10.7,4.5-20.3,8.7
		c-12.7,5.6-28.6,12.6-41.2,17.7c-15.3,6.2-20.3,7.2-35.9,7.1c-0.8,0-1.4,0.6-1.4,1.4c0,0.8,0.6,1.4,1.4,1.4c0.3,0,0.7,0,1,0
		c15.2,0,20.6-1.1,36-7.4c12.7-5.2,28.6-12.1,41.3-17.7c9.2-4,17.1-7.5,20.1-8.7l0,0c4.6-1.8,8.2-6.6,6.4-12.4
		C228.1,192,223.3,188.3,215.8,190.2z M81.3,247.8H51.8v-62h29.6V247.8z"/>
</g>
</svg>
