<?xml version="1.0" encoding="utf-8"?>
<!-- Generator: Adobe Illustrator 23.0.6, SVG Export Plug-In . SVG Version: 6.00 Build 0)  -->
<svg version="1.1" id="Camada_1" xmlns="http://www.w3.org/2000/svg" xmlns:xlink="http://www.w3.org/1999/xlink" x="0px" y="0px"
	 viewBox="0 0 700 385.4" style="enable-background:new 0 0 700 385.4;" xml:space="preserve">
<style type="text/css">
	.st0{fill:#00D7CE;}
	.st1{fill:#FE7B00;}
</style>
<g>
	<path class="st0" d="M590.6,244.5c-10.7-19-34.4-26.2-53.9-16.4l-76.9,36.3l-2.5-4.7c-9-16.7-26.3-27.4-45.2-27.9l-66.4-1.8
		c-11.3-0.3-22.5-3.2-32.6-8.4l-6.8-3.5c-33-17.2-72.3-17.2-105.3,0.1l-8.4,4.4l0.7-24.8c0-1-0.3-1.9-1-2.6
		c-0.7-0.7-1.6-1.1-2.5-1.1l-72.8-2c-0.9,0-1.9,0.3-2.6,1c-0.7,0.7-1.1,1.6-1.1,2.5l-4.4,159.8c-0.1,2,1.5,3.7,3.5,3.7l72.9,2
		c2,0,3.6-1.5,3.6-3.5l0.3-10.9l21.8-11.7c8.6-4.6,18.8-5.8,28.4-3.1l113,31.7l0.3,0.1c7.7,1.6,15.6,2.4,23.6,2.4h0.1
		c16.7,0,33.6-3.7,48.8-10.7c0.2-0.1,0.3-0.1,0.4-0.2l163.9-106C591,248.3,591.6,246.2,590.6,244.5z M351,279.6c-1,0-1.9,0.3-2.6,1
		c-0.7,0.7-1.1,1.6-1.1,2.6c0,1,0.3,1.9,1,2.6c0.7,0.7,1.6,1.1,2.5,1.1l109.3,3c2,0,3.6-1.5,3.6-3.5c0.1-3.6-0.2-7.2-0.8-10.8
		l-0.8-4.2l77.7-36.7c12.5-6.3,27.8-4.2,38,5.3l5.3,4.9L421.9,349.1l-0.4,0.2c-14.3,6.5-29.4,9.7-45,9.7c-7.4,0-14.8-0.8-22.1-2.2
		l-0.4-0.1l-112.7-31.6c-4.1-1.1-8.2-1.7-12.4-1.7c-7.4,0-14.7,1.8-21.4,5.4l-18.1,9.7l2.9-106.6l2.4-1.6
		c32.3-21.5,73.8-23.7,108.2-5.8l6.8,3.5c11,5.7,23.3,8.9,35.7,9.2l66.4,1.8c21.3,0.6,39.3,15.6,43.6,36.5l1.4,6.9L351,279.6z
		 M186.1,201.2l-4.2,152.6l-65.6-1.8l4.2-152.6L186.1,201.2z"/>
	<g>
		<path class="st1" d="M364.6,115.1c7.3,0,13.1,5.9,13.1,13.1c0,2,1.6,3.6,3.6,3.6s3.6-1.6,3.6-3.6c0-9.6-6.8-17.9-16.2-19.9
			l-1.2-0.3v-5.9c0-2-1.6-3.6-3.6-3.6s-3.6,1.6-3.6,3.6v6.1l-1.1,0.3c-9.8,2.7-16.1,12.3-14.8,22.3c1.3,10,10,17.6,20.1,17.6
			c7.1,0,13,5.8,13.1,12.9c0.1,7.1-5.5,13.1-12.6,13.4l-0.2,0l-0.2,0c-0.4-0.1-0.8-0.1-1.2,0l-0.2,0l-0.2,0
			c-6.6-0.8-11.6-6.4-11.6-13.1c0-2-1.6-3.6-3.6-3.6s-3.6,1.6-3.6,3.6c0,9.1,6.2,17.2,15,19.6l1.1,0.3v6.3c0,2,1.6,3.6,3.6,3.6
			s3.6-1.6,3.6-3.6v-6.1l1.2-0.3c10.2-2.1,17.1-11.6,16-22c-1.1-10.4-9.8-18.2-20.2-18.2c-7.2,0-13.1-5.9-13.1-13.1
			S357.4,115.1,364.6,115.1z"/>
		<path class="st1" d="M364.7,72.7c-40,0-72.6,32.6-72.7,72.7c0,40.1,32.6,72.7,72.7,72.7s72.7-32.6,72.7-72.7
			C437.3,105.3,404.7,72.7,364.7,72.7z M364.7,210.9c-36.1,0-65.5-29.4-65.5-65.5c0-36.1,29.4-65.5,65.5-65.5
			c36.1,0,65.5,29.4,65.5,65.5C430.1,181.5,400.8,210.9,364.7,210.9z"/>
		<path class="st1" d="M364.7,60.4c2,0,3.6-1.6,3.6-3.6V8.2c0-2-1.6-3.6-3.6-3.6s-3.6,1.6-3.6,3.6v48.6
			C361.1,58.8,362.7,60.4,364.7,60.4z"/>
		<path class="st1" d="M403,60.4c2,0,3.6-1.6,3.6-3.6v-23c0-2-1.6-3.6-3.6-3.6c-2,0-3.6,1.6-3.6,3.6v23
			C399.4,58.8,401,60.4,403,60.4z"/>
		<path class="st1" d="M326.3,60.4c2,0,3.6-1.6,3.6-3.6v-23c0-2-1.6-3.6-3.6-3.6c-2,0-3.6,1.6-3.6,3.6v23
			C322.7,58.8,324.3,60.4,326.3,60.4z"/>
	</g>
</g>
</svg>
