<?xml version="1.0" encoding="utf-8"?>
<!-- Generator: Adobe Illustrator 24.1.0, SVG Export Plug-In . SVG Version: 6.00 Build 0)  -->
<svg version="1.1" id="Camada_1" xmlns="http://www.w3.org/2000/svg" xmlns:xlink="http://www.w3.org/1999/xlink" x="0px" y="0px"
	 viewBox="0 0 206.5 112.5" style="enable-background:new 0 0 206.5 112.5;" xml:space="preserve">
<style type="text/css">
	.st0{fill:#00FEFD;}
	.st1{fill:#001447;}
</style>
<g>
	<polygon class="st0" points="66.5,8.9 43.8,8.9 43.8,24.9 66.5,24.8 	"/>
	<path class="st0" d="M40.8,8.9h-9.6c-0.9,0-1.8,0.3-2.5,0.9L11,25l29.8-0.1V8.9z"/>
	<path class="st0" d="M21.2,76.8H7.8v11.4h8.4l0.2-1.2c0.4-2.9,1.5-5.7,3.3-8.1L21.2,76.8z"/>
	<path class="st0" d="M102.1,22.3c-4.9-3.7-10.2-6.8-15.8-9.2c-2.5-1-5.1-1.9-7.7-2.6c-2.5-0.7-5.1-1.1-7.7-1.4l-1.5-0.2v15.9
		l35.8-0.1L102.1,22.3z"/>
	<path class="st0" d="M108.2,43.8c-5.1,0-9.3,4.2-9.3,9.3c0,5.1,4.2,9.3,9.3,9.3l0,0.4v-0.4c5.1,0,9.3-4.2,9.3-9.3
		C117.5,47.9,113.3,43.8,108.2,43.8z"/>
	<path class="st0" d="M36.3,43.9c-2.5,0-4.8,1-6.6,2.7c-1.8,1.8-2.7,4.1-2.7,6.6c0,2.5,1,4.8,2.7,6.6c1.8,1.8,4.1,2.7,6.6,2.7l0,0.4
		l0-0.4c5.1,0,9.3-4.2,9.3-9.3C45.6,48.1,41.4,43.9,36.3,43.9z"/>
	<path class="st0" d="M172,46.4h12c1,0,2,0.1,3,0.3l1.6,0.3v-3.8c0-0.3-0.1-0.6-0.1-0.8c0-0.1,0-0.1-0.1-0.2l-6.3-25.1h-16.7v22.7
		C165.4,43.4,168.4,46.4,172,46.4z"/>
	<polygon class="st0" points="157.1,80 157.1,80 157.1,80 	"/>
	<path class="st0" d="M81.7,79c1.7,2.4,2.9,5.1,3.2,8l0.2,1.2h57.3V76.8H80.1L81.7,79z"/>
	<path class="st0" d="M55.4,76.8h-9.5l1.6,2.2c0.8,1,1.4,2.1,1.9,3.3l1.2,2.8l1.2-2.8c0.5-1.2,1.2-2.2,1.9-3.3L55.4,76.8z"/>
	<path class="st1" d="M192.3,48.5l-0.7-0.4v-4.9c0-0.6-0.1-1.2-0.3-1.7l-6.1-24.3h7.8c0.8,0,1.5-0.7,1.5-1.5c0-0.8-0.7-1.5-1.5-1.5
		h-49c-0.8,0-1.5,0.7-1.5,1.5v58.2H75.7l-0.3-0.1c-4.8-2.4-10.5-2.4-15.3,0l-0.3,0.1H41.5l-0.3-0.1c-4.8-2.4-10.5-2.4-15.3,0
		l-0.3,0.1H7.9c-1.7,0-3.1,1.4-3.1,3.1V88c0,1.7,1.4,3.1,3.1,3.1h8.3l0.2,1.1c1.3,7.6,7.3,13.3,15,14.3c7.6,1,14.9-3.1,18-10.1
		l1.2-2.8l1.2,2.8c3.1,7,10.4,11.1,18,10.1c7.6-1,13.6-6.7,15-14.3l0.2-1.1l68.9,0l0.2,1.1c1.4,8.3,8.6,14.4,17.1,14.4
		s15.7-6.1,17.1-14.4l0.2-1.1h11.6c0.8,0,1.5-0.7,1.5-1.5V64C201.7,57.5,198.1,51.5,192.3,48.5z M16.3,87l-0.2,1.2H7.8V76.8h13.4
		L19.6,79C17.9,81.3,16.7,84.1,16.3,87z M48,89.6L48,89.6c-0.2,7.8-6.7,14.1-14.4,14.1c-7.8,0-14.2-6.3-14.4-14.1c0-0.1,0-0.2,0-0.3
		c0-3.6,1.4-7.1,3.8-9.8l0.2-0.2c1-1.1,2.2-2,3.5-2.7c2.1-1.2,4.5-1.7,6.9-1.7c2.4,0,4.7,0.6,6.9,1.7c1.3,0.7,2.5,1.6,3.6,2.8
		l0.1,0.1c2.5,2.7,3.9,6.2,3.8,9.8C48,89.4,48,89.5,48,89.6z M50.6,85l-1.2-2.8c-0.5-1.2-1.2-2.2-1.9-3.3l-1.6-2.2h9.5L53.8,79
		c-0.8,1-1.4,2.1-1.9,3.3L50.6,85z M82.2,89.7c-0.2,7.7-6.7,14-14.4,14c-7.8,0-14.2-6.4-14.4-14.1l0-0.2c0-5.3,2.9-10.2,7.5-12.7
		c2-1.1,4.4-1.7,6.9-1.7c2.4,0,4.8,0.6,6.9,1.7c4.3,2.3,7.2,6.7,7.5,11.6c0,0.3,0,0.7,0,1.1L82.2,89.7L82.2,89.7z M142.4,88.2H85.1
		L85,87c-0.4-2.9-1.5-5.7-3.2-8l-1.6-2.2h62.3V88.2z M165.4,17.1h16.7l6.3,25.1c0,0,0,0.1,0.1,0.2c0.1,0.2,0.1,0.5,0.1,0.8v3.8
		l-1.6-0.3c-1-0.2-2-0.3-3-0.3h-12c-3.6,0-6.6-3-6.6-6.6V17.1z M145.4,17.1h17.1v22.7c0,4.4,3,8.2,7.2,9.3l1,0.3v10.1h-25.3V17.1z
		 M185.7,89.6c-0.2,7.8-6.7,14.1-14.4,14.1c-7.8,0-14.2-6.3-14.4-14.1l0-0.2c0-7.8,6.1-14.2,13.9-14.5c0.2,0,0.3,0,0.5,0
		c7.6,0,13.8,5.8,14.4,13.4c0,0.3,0,0.7,0,1.1L185.7,89.6z M157.1,80L157.1,80C157.1,80,157.1,80,157.1,80L157.1,80z M198.8,88.2
		h-10.1l-0.2-1.2c-1.1-8.6-8.5-15.1-17.2-15.1c-5.8,0-11.1,2.9-14.4,7.7l-0.1,0.1c-0.3,0.4-0.5,0.8-0.7,1.2l-0.1,0.2
		c-0.2,0.4-0.4,0.7-0.6,1.2l-0.1,0.2c-0.2,0.4-0.3,0.9-0.5,1.3l0,0.1c-0.1,0.4-0.2,0.8-0.3,1.2l-0.1,0.4c-0.1,0.5-0.2,0.9-0.3,1.4
		l-0.2,1.2h-8.5V62.3h26.8c0.8,0,1.5-0.7,1.5-1.5V49.3h10.4c8.1,0,14.7,6.6,14.7,14.7L198.8,88.2z"/>
	<path class="st1" d="M9,26v11.9C9,43.1,11.5,48,15.7,51c2.1,1.5,4.6,2.3,7.1,2.3l1.2,0l0.1,1.2c0.7,6,5.8,10.7,11.8,10.8
		c0.1,0,0.1,0,0.2,0c6,0,11.2-4.3,12.2-10.2l0.2-1.1H96l0.2,1.1c1.1,5.8,6.1,10,12,10c5.9,0,11-4.2,12-10l0.2-1.1h13.8
		c1.4,0,2.6-1.2,2.6-2.6V41c0-6.3-4.5-11.7-10.6-12.9l-16.6-3.2l-0.3-0.3c-6.5-6-13.9-10.7-22-14.2c-2.6-1.1-5.3-2-8-2.7
		C75.8,6.7,72.2,6.1,68.5,6l-0.2,0c-0.1,0-0.2,0-0.3,0c0,0-0.1,0-0.1,0l-0.1,0l-0.2,0c-0.4,0-0.8,0-1.2,0H31.3
		c-1.6,0-3.2,0.6-4.5,1.6L11.4,20.8c-1.5,1.2-2.3,3-2.4,4.9l0,0h0C9,25.8,9,25.9,9,26z M108.2,62.3v0.4V62.3c-5.1,0-9.3-4.2-9.3-9.3
		c0-5.1,4.2-9.3,9.3-9.3c5.1,0,9.3,4.2,9.3,9.3C117.5,58.2,113.3,62.3,108.2,62.3z M69.5,8.9L71,9.1c2.6,0.3,5.2,0.7,7.7,1.4
		c2.6,0.7,5.2,1.6,7.7,2.6c5.6,2.4,10.9,5.5,15.8,9.2l3.2,2.4l-35.8,0.1V8.9z M69.5,27.8l39.3-0.1l16.9,3.3c4.8,0.9,8.2,5.1,8.3,10
		v10.2h-13.6l-0.3-1c-1.3-5.5-6.2-9.3-11.9-9.3c-5.6,0-10.5,3.8-11.9,9.3l-0.3,1H69.5V27.8z M36.3,62.5l0,0.4L36.3,62.5
		c-2.5,0-4.8-1-6.6-2.7c-1.8-1.8-2.7-4.1-2.7-6.6c0-2.5,1-4.8,2.7-6.6c1.8-1.8,4.1-2.7,6.6-2.7c5.1,0,9.3,4.2,9.3,9.3
		C45.6,58.3,41.4,62.5,36.3,62.5z M66.5,51.2H48.4l-0.3-1c-1.3-5.3-6.1-9-11.5-9.2c-5.4-0.1-10.4,3.4-12,8.5l-0.3,0.9h-1.2
		c-2,0-4-0.6-5.7-1.8C14,46.2,12,42.1,12,37.9v-9.9l54.6-0.2V51.2z M43.8,8.9h22.8v16l-22.8,0.1V8.9z M28.7,9.8
		c0.7-0.6,1.6-0.9,2.5-0.9h9.6v16.1L11,25L28.7,9.8z"/>
</g>
</svg>
