<?xml version="1.0" encoding="utf-8"?>
<!-- Generator: Adobe Illustrator 24.1.0, SVG Export Plug-In . SVG Version: 6.00 Build 0)  -->
<svg version="1.1" id="Camada_1" xmlns="http://www.w3.org/2000/svg" xmlns:xlink="http://www.w3.org/1999/xlink" x="0px" y="0px"
	 viewBox="0 0 104.7 76.4" style="enable-background:new 0 0 104.7 76.4;" xml:space="preserve">
<style type="text/css">
	.st0{fill:#00FEFD;}
	.st1{fill:#001447;}
</style>
<g id="Grupo_20" transform="translate(-63.666 -161.519)">
	<g>
		<path class="st0" d="M148.1,176.9c-9.4-4.3-20.3-6.4-32.1-6.4c-11.9,0-22.8,2.2-32.2,6.4c-5.1,2.2-9.7,5.2-13.7,8.9l-0.3,0.3
			l11.8,43.1l0.8-0.5c11.1-6.1,25.8-7,33.6-7c2.9,0,5.7,0.1,9.1,0.4l0.5,0l13.2-20.6c0.2-0.4,0.7-0.6,1.1-0.6c0,0,0,0,0,0h6.6
			l3.5-12.9c0.1-0.3,0.3-0.6,0.6-0.8c0.3-0.2,0.7-0.2,1-0.1c0.7,0.2,1.1,0.9,0.9,1.6l-8.5,31c-0.2,0.6-0.7,1-1.3,1c0,0,0,0,0,0
			c-0.1,0-0.2,0-0.3,0c-0.3-0.1-0.6-0.3-0.8-0.6c-0.2-0.3-0.2-0.7-0.1-1l4.2-15.5h-5.2l-12.1,18.9l1.2,0.2c10.5,1.5,17.1,4.5,20,6.1
			l0.8,0.5l11.8-43.1l-0.3-0.3C157.8,182.1,153.2,179.1,148.1,176.9z"/>
		<path class="st1" d="M164.7,184.9c-0.6-0.7-15.3-17-48.7-17c-33.3,0-48.1,16.3-48.7,17c-0.3,0.3-0.4,0.8-0.3,1.2l12.4,45.6
			c0.1,0.4,0.4,0.8,0.9,0.9c0.4,0.1,0.9,0.1,1.2-0.2c0.1-0.1,10.9-8,34.4-8c2.1,0,4.2,0.1,6.6,0.2l1.3,0.1l-0.6,1l0,0l-2.8,4.4h-1.4
			c-0.7,0-1.3,0.6-1.3,1.3s0.6,1.3,1.3,1.3h8.3c0.7,0,1.3-0.6,1.3-1.3s-0.6-1.3-1.3-1.3h-3.8l3.1-4.8l0,0l0.2-0.3l0.5,0.1
			c15.8,1.9,23,7.3,23.1,7.4c0.2,0.2,0.5,0.3,0.8,0.3c0,0,0,0,0,0c0.1,0,0.3,0,0.4-0.1c0.4-0.1,0.8-0.5,0.9-0.9l12.4-45.6
			C165.1,185.7,165,185.2,164.7,184.9L164.7,184.9z M150.5,229.2l-0.8-0.5c-3-1.6-9.5-4.6-20-6.1l-1.2-0.2l12.1-18.9h5.2l-4.2,15.5
			c-0.1,0.3,0,0.7,0.1,1c0.2,0.3,0.5,0.5,0.8,0.6c0.1,0,0.2,0,0.3,0c0,0,0,0,0,0c0.6,0,1.1-0.4,1.3-1l8.5-31
			c0.2-0.7-0.2-1.4-0.9-1.6c-0.3-0.1-0.7,0-1,0.1c-0.3,0.2-0.5,0.5-0.6,0.8l-3.5,12.9h-6.6c0,0,0,0,0,0c-0.5,0-0.9,0.2-1.1,0.6
			l-13.2,20.6l-0.5,0c-3.3-0.3-6.2-0.4-9.1-0.4c-7.8,0-22.5,0.9-33.6,7l-0.8,0.5l-11.8-43.1l0.3-0.3c4.1-3.7,8.7-6.7,13.7-8.9
			c9.4-4.3,20.2-6.4,32.2-6.4c11.9,0,22.7,2.2,32.1,6.4c5.1,2.2,9.7,5.2,13.8,8.9l0.3,0.3L150.5,229.2z"/>
	</g>
	<path class="st1" d="M86.1,185.3c-0.1-0.3-0.3-0.6-0.7-0.8c-0.6-0.3-1.4-0.1-1.8,0.6l-4.1,8.3c-0.2,0.3-0.2,0.7-0.1,1
		c0.1,0.3,0.3,0.6,0.7,0.8c0.2,0.1,0.4,0.1,0.6,0.1c0.1,0,0.3,0,0.4-0.1c0.3-0.1,0.6-0.3,0.8-0.7l4.1-8.3
		C86.2,186,86.3,185.7,86.1,185.3z"/>
	<path class="st1" d="M93.8,184.6l-0.1-0.1h0c-0.1,0-0.3-0.1-0.4-0.1c0,0,0,0,0,0c-0.5,0-1,0.3-1.2,0.7l-8.3,16.6
		c-0.3,0.7-0.1,1.4,0.6,1.8c0.2,0.1,0.4,0.1,0.6,0.1c0.1,0,0.3,0,0.4-0.1c0.3-0.1,0.6-0.3,0.8-0.7l8.3-16.6
		C94.7,185.7,94.4,184.9,93.8,184.6z"/>
</g>
</svg>
