<?xml version="1.0" encoding="utf-8"?>
<!-- Generator: Adobe Illustrator 24.1.0, SVG Export Plug-In . SVG Version: 6.00 Build 0)  -->
<svg version="1.1" id="Camada_1" xmlns="http://www.w3.org/2000/svg" xmlns:xlink="http://www.w3.org/1999/xlink" x="0px" y="0px"
	 viewBox="0 0 114.5 110.4" style="enable-background:new 0 0 114.5 110.4;" xml:space="preserve">
<style type="text/css">
	.st0{fill:#00FEFD;}
	.st1{fill:#001447;}
</style>
<g>
	<path class="st0" d="M54.7,76.8l0-0.6L46.3,75L45.6,80l8.6,1.2l0.4-2.5l0.5,0.1l-0.5-0.1C54.7,78.1,54.7,77.4,54.7,76.8z"/>
	<path class="st0" d="M75.2,51.9c-1.2,0.1-2.1,1-2.3,2.1l-1.8,10.7l31.8-2.9l-1.1-12.3L75.2,51.9z"/>
	<polygon class="st0" points="27.6,48.8 27.6,50.6 13.8,48.6 12,60.8 37.3,64.3 	"/>
	<path class="st0" d="M59.4,70.9c-0.2,1.8-0.2,3.6-0.1,5.4l0.5,5.5l4.7-2.8l-2.7-2.7c-0.3-0.3-0.3-0.6-0.3-0.7s0-0.5,0.3-0.7
		l2.6-2.6l-5-2.5L59.4,70.9z"/>
	
		<rect x="17.7" y="67.2" transform="matrix(0.1389 -0.9903 0.9903 0.1389 -53.2163 78.8618)" class="st1" width="2.1" height="5.7"/>
	
		<rect x="30.7" y="92.6" transform="matrix(0.1385 -0.9904 0.9904 0.1385 -65.3944 112.1128)" class="st1" width="2.1" height="2.1"/>
	<path class="st1" d="M60.6,65.1l6.8-16.4c0.9-2.1,2.8-3.6,5.2-3.8l37-3.2l0.6,0l0.3-2.1l-0.6,0c-0.2,0-0.3,0-0.5,0l-37,3.2
		c-3.1,0.3-5.7,2.2-6.9,5.1l-6.8,16.5c-0.9,2.6-1.3,5.2-1.5,7.9l-0.1,2.4L58.6,92c0.2,2.4,2.2,4.2,4.7,4.2c0.1,0,0.2,0,0.3,0
		l6.2-0.5l0.2,0.6c1.3,5.4,6,9.1,11.5,9.1c0.3,0,0.7,0,1,0c5.8-0.5,10.4-5.3,10.8-11.1l0-0.7l17.2-1.5l-0.2-2.1l-2.8,0.2l-2.3-26.6
		l5.3-0.5l-0.2-2.1l-5.3,0.5l-1.1-12.3l6.6-0.6l-0.2-2.1L75,49.8c-2.1,0.2-3.8,1.8-4.2,3.8l-1.6,9.8c-0.1,0.8,0.2,1.6,0.7,2.2
		c0,0,0,0,0,0l0,0.2l0.2,0c0.5,0.5,1.2,0.8,2,0.8c0.1,0,0.2,0,0.3,0l30.8-2.7l2.3,26.6l-12.3,1.1l-0.1-0.6
		c-1.3-5.7-6.7-9.6-12.5-9.1c-5.8,0.5-10.4,5.3-10.8,11.1l0,0.7l-6.2,0.5c-0.7,0.1-1.3-0.2-1.9-0.6c-0.5-0.4-0.8-1.1-0.9-1.7
		l-0.2-2.6l5.4-0.5l-0.2-2.1l-5.4,0.5L60,84.1l6.7-4c0.3-0.2,0.5-0.4,0.5-0.8c0-0.3-0.1-0.6-0.3-0.9l-2.9-2.9l2.9-2.9
		c0.2-0.2,0.3-0.6,0.3-0.9c-0.1-0.3-0.3-0.6-0.6-0.8l-6.7-3.4l0.2-0.7C60.3,66.4,60.4,65.8,60.6,65.1L60.2,65v0L60.6,65.1z
		 M71.1,64.7L72.9,54c0.2-1.1,1.1-2,2.3-2.1l26.6-2.3l1.1,12.3L71.1,64.7z M72.1,90.7c1.2-3.8,4.5-6.4,8.4-6.8c0.3,0,0.6,0,0.9,0
		c5.1,0,9.2,3.8,9.7,8.9c0.3,3.9-1.7,7.7-5.2,9.5c-1.4,0.7-2.9,1.1-4.5,1.1c-2.3,0-4.5-0.8-6.3-2.3C72.1,98.5,71,94.4,72.1,90.7z
		 M64.5,72.3l-2.6,2.6c-0.3,0.3-0.3,0.6-0.3,0.7s0,0.5,0.3,0.7l2.7,2.7l-4.7,2.8l-0.5-5.5c-0.2-1.8-0.1-3.6,0.1-5.4l0.1-1.1
		L64.5,72.3z"/>
	<path class="st1" d="M54.4,70.3L54.4,70.3c-1.9-2.5-4.7-4.2-7.8-4.6L41.8,65l11.7-7.8l2.5,2.5l1.5-1.5l-3.1-3.1
		c-0.3-0.3-0.9-0.4-1.3-0.1l-13.6,9L27.2,44.1c-1.3-2.1-3.4-3.5-5.8-3.8L4.2,37.9L3.9,40l17.1,2.4c1.8,0.3,3.4,1.3,4.4,2.8l2,3.2
		L4.2,45.2l-0.3,2.1l7.8,1.1L10,60.5l-5.8-0.8l-0.3,2.1l5.8,0.8L6,89l-1.8-0.2l-0.3,2.1L20,93l0,0.7c0,6.5,5.3,11.8,11.8,11.8
		c5.2,0,9.9-3.5,11.3-8.5l0.2-0.6l6.1,0.9c0.2,0,0.4,0,0.7,0c2.3,0,4.3-1.7,4.6-4l2.5-17.5l-1.4-3.1C55.4,71.8,54.9,71,54.4,70.3z
		 M13.8,48.6l13.9,1.9v-1.8l9.7,15.6L12,60.8L13.8,48.6z M41.4,95c-0.5,3.9-3.4,7.1-7.2,8.1c-0.8,0.2-1.6,0.3-2.5,0.3
		c-3.1,0-5.9-1.4-7.8-3.9c-2.2-3-2.6-6.9-0.9-10.2c1.7-3.3,5-5.4,8.7-5.4c0.5,0,0.9,0,1.4,0.1C38.4,84.8,42.2,89.7,41.4,95l0.5,0.1
		L41.4,95z M53.2,88.4l-5.3-0.8l-0.3,2.1l5.3,0.8l-0.4,2.5c-0.2,1.4-1.4,2.4-2.9,2.2l-6.1-0.9l0-0.7c0-4.5-2.5-8.5-6.6-10.5
		c-4-2-8.8-1.6-12.4,1.1c-2,1.5-3.5,3.7-4.2,6.1L20.3,91L8,89.3l3.7-26.4l34.6,4.9c3.1,0.4,5.7,2.2,7.1,5l0.7,1.3L47.4,73
		c-1.5-0.2-3,0.9-3.2,2.4L43.7,79c-0.2,1.5,0.9,3,2.4,3.2l7.9,1.1L53.2,88.4z M54.6,78.7l-0.4,2.5L45.6,80l0.7-5.1l8.3,1.2l0,0.6
		C54.7,77.4,54.7,78.1,54.6,78.7l0.5,0.1L54.6,78.7z"/>
	
		<rect x="74.9" y="71.2" transform="matrix(0.9962 -8.720971e-02 8.720971e-02 0.9962 -6.0059 7.0555)" class="st1" width="5.7" height="2.1"/>
	
		<rect x="80.4" y="92.6" transform="matrix(0.9962 -8.764627e-02 8.764627e-02 0.9962 -7.8909 7.4936)" class="st1" width="2.1" height="2.1"/>
	<g>
		<path class="st1" d="M67.2,37.5c-0.2-0.4-0.5-0.6-1-0.6h-9.7v-7.9c0-0.4-0.3-0.8-0.6-1c-0.4-0.2-0.8-0.1-1.1,0.2l-8.3,8.3
			l-8.3-8.3c-0.3-0.3-0.7-0.4-1.1-0.2c-0.4,0.2-0.6,0.5-0.6,1v7.9h-7.9c-0.4,0-0.8,0.3-1,0.6c-0.2,0.4-0.1,0.8,0.2,1.1l4.9,4.9
			l1.5-1.5L31,38.9h6.5c0.6,0,1-0.5,1-1v-6.5l7.2,7.2c0.2,0.2,0.5,0.3,0.7,0.3h0c0.3,0,0.5-0.1,0.7-0.3l7.2-7.2v6.5c0,0.6,0.5,1,1,1
			h8.3l-4.9,4.9l1.5,1.5l6.6-6.6C67.2,38.3,67.3,37.8,67.2,37.5z"/>
	</g>
	<path class="st0" d="M46.7,19.3c0,0.9-0.4,1.8-1.1,2.4c-0.6,0.6-1,1.4-1.2,2.2l-0.2,0.6h2.1l0.1-0.3c0.2-0.5,0.5-0.9,0.9-1.3
		c1.9-2,1.9-5.2,0-7.2c-0.7-0.6-1.1-1.5-1.1-2.4c0-0.9,0.4-1.8,1.1-2.4c0.6-0.6,1-1.4,1.2-2.2l0.2-0.6h-2.1l-0.1,0.3
		c-0.2,0.5-0.5,0.9-0.9,1.3c-1.9,2-1.9,5.2,0,7.2C46.3,17.5,46.7,18.4,46.7,19.3z"/>
	<path class="st0" d="M57.4,15.7c0,0.9-0.4,1.8-1.1,2.4c-0.6,0.6-1,1.4-1.2,2.2l-0.2,0.6h2.1l0.1-0.3c0.2-0.5,0.5-0.9,0.9-1.3
		c1.9-2,1.9-5.2,0-7.2c-0.7-0.6-1.1-1.5-1.1-2.4c0-0.9,0.4-1.8,1.1-2.4c0.6-0.6,1-1.4,1.2-2.2l0.2-0.6h-2.1l-0.1,0.3
		c-0.2,0.5-0.5,0.9-0.9,1.3c-1.9,2-1.9,5.2,0,7.2C57.1,13.9,57.4,14.8,57.4,15.7z"/>
</g>
</svg>
