<?xml version="1.0" encoding="utf-8"?>
<!-- Generator: Adobe Illustrator 24.1.2, SVG Export Plug-In . SVG Version: 6.00 Build 0)  -->
<svg version="1.1" id="Camada_1" xmlns="http://www.w3.org/2000/svg" xmlns:xlink="http://www.w3.org/1999/xlink" x="0px" y="0px"
	 viewBox="0 0 80 80" style="enable-background:new 0 0 80 80;" xml:space="preserve">
<style type="text/css">
	.st0{fill:#00FEFD;}
	.st1{fill:#000147;}
	.st2{fill:none;}
</style>
<path class="st0" d="M67.3,25.2v-5.1c0-5.3-4.4-9.7-9.7-9.7s-9.7,4.4-9.7,9.7v5.1c0,0.2,0,0.4,0,0.6h19.4
	C67.3,25.6,67.3,25.4,67.3,25.2z M61.8,24.6c-2.1,0-3.8-0.9-4.2-2.2c-0.5,1.3-2.2,2.2-4.3,2.2c-2.5,0-4.4-1.3-4.4-3s1.9-3,4.4-3
	c2.1,0,3.8,0.9,4.3,2.2c0.5-1.3,2.2-2.2,4.2-2.2c2.5,0,4.4,1.3,4.4,3S64.3,24.6,61.8,24.6z"/>
<path class="st0" d="M21.8,47.2c-0.4-0.9-1.3-1.5-2.3-1.5h-5.4c-0.4,0-0.8,0.4-0.8,0.8v3.1c0,0.4,0.4,0.8,0.8,0.8h7.7
	c0.3,0,0.6-0.2,0.8-0.5c0.1-0.1,0.2-0.4,0.1-0.8L21.8,47.2z"/>
<path class="st1" d="M42.5,37.9c-0.1,0-0.2,0-0.2,0H11.9c-0.2,0.3-0.5,0.4-0.8,0.4c-0.1,0-0.2,0-0.3-0.1c-0.1,0-0.3-0.1-0.3-0.2
	c-2.4,0.5-4.3,2.7-4.3,5.3v14.6c0,2.7,2.1,5,4.7,5.3V63c0-0.6,0.4-1,1-1s1,0.4,1,1v0.3h8.7V63c0-0.6,0.4-1,1-1s1,0.4,1,1v0.3H31
	c0.6,0,1-0.4,1-1s-0.4-1-1-1H11.5c-1.8,0-3.4-1.6-3.4-3.4V43.3c0-1.8,1.6-3.4,3.4-3.4H41C41.4,39.2,41.9,38.5,42.5,37.9z"/>
<path class="st1" d="M45.1,55.8c0-0.6-0.4-1-1-1H26.4c-0.6,0-1,0.4-1,1s0.4,1,1,1h17.7C44.7,56.8,45.1,56.4,45.1,55.8z"/>
<path class="st1" d="M21.5,69.1c0,0.7-0.7,1.4-1.4,1.4h-5.9c-0.7,0-1.4-0.7-1.4-1.4v-5.8h-1.3c-0.2,0-0.5,0-0.7-0.1v5.9
	c0,1.8,1.6,3.4,3.4,3.4h5.9c1.8,0,3.4-1.6,3.4-3.4v-5.8h-2V69.1z"/>
<path class="st1" d="M22.5,62c-0.6,0-1,0.4-1,1v0.3h2V63C23.5,62.4,23.1,62,22.5,62z"/>
<path class="st1" d="M12.8,63.3V63c0-0.6-0.4-1-1-1s-1,0.4-1,1v0.2c0.2,0,0.5,0.1,0.7,0.1H12.8z"/>
<path class="st1" d="M63,69.1c0,0.7-0.7,1.4-1.4,1.4h-5.9c-0.7,0-1.4-0.7-1.4-1.4v-5.8h-2v5.8c0,1.8,1.6,3.4,3.4,3.4h5.9
	c1.8,0,3.4-1.6,3.4-3.4v-5.8h-2V69.1z"/>
<path class="st1" d="M48.3,12.7H32.5c-0.6,0-1,0.4-1,1s0.4,1,1,1h14.7c0.4-0.7,0.8-1.4,1.3-2C48.4,12.7,48.4,12.7,48.3,12.7z"/>
<path class="st1" d="M10.7,35.6c0-0.1,0-0.2,0-0.3l-0.1,0.4C10.7,35.7,10.7,35.7,10.7,35.6z"/>
<path class="st1" d="M11.9,37.9c0.1-0.1,0.1-0.2,0.1-0.3l0.3-0.9c-0.4,0.7-1.2,1-2,1h-0.1c0,0.1,0.1,0.2,0.2,0.2
	c0.4-0.1,0.7-0.1,1.1-0.1H11.9z"/>
<path class="st1" d="M12.5,34.4c0.2,0.4,0.3,0.9,0.2,1.4l6.8-18.5c0.5-1.5,2-2.5,3.7-2.5h3.2c0.6,0,1-0.4,1-1s-0.4-1-1-1h-3.2
	c-2.5,0-4.7,1.6-5.5,3.9l-5.9,16.2c0.1,0.1,0.1,0.2,0.2,0.4L12.5,34.4z"/>
<path class="st1" d="M10.8,38.2c0.1,0,0.2,0.1,0.3,0.1c0.3,0,0.6-0.1,0.8-0.4h-0.4c-0.4,0-0.7,0-1.1,0.1
	C10.5,38.1,10.6,38.2,10.8,38.2z"/>
<path class="st1" d="M35.5,20.2c0.6,0,1-0.4,1-1s-0.4-1-1-1h-0.2c-0.6,0-1,0.4-1,1s0.4,1,1,1H35.5z"/>
<path class="st1" d="M23,20.7l-2.4,6.4l-0.2,0.4c0,0,0,0.1,0,0.1l-1,2.7l-0.1,0.1c-0.2,0.5,0,1.1,0.4,1.3c0.1,0.1,0.3,0.1,0.4,0.1
	c0.4,0,0.7-0.2,0.9-0.6l0.1-0.2c0,0,0-0.1,0-0.1l1-2.7l0.2-0.3c0,0,0-0.1,0-0.1l2.4-6.4c0.3-0.7,0.9-1.1,1.7-1.1h4.8
	c0.6,0,1-0.4,1-1s-0.4-1-1-1h-4.8C24.9,18.3,23.5,19.3,23,20.7z"/>
<path class="st1" d="M10.2,37l0.4-1.2c-0.1,0-0.1,0.1-0.2,0.1H4.9c-0.1,0-0.3-0.2-0.3-0.3v-2.2c0-0.1,0.2-0.3,0.3-0.3h3.8
	c0.6,0,1.1,0.4,1.4,0.9l0.6,1.3c0,0,0,0.1,0,0.1l1-2.7c-0.6-1.1-1.8-1.7-3-1.7H4.9c-1.2,0-2.3,1.1-2.3,2.3v2.2
	c0,1.2,1.1,2.3,2.3,2.3h5.4C10.1,37.6,10.1,37.2,10.2,37z"/>
<path class="st1" d="M12.4,36.7c0.2-0.3,0.3-0.6,0.3-0.9L12.4,36.7C12.4,36.7,12.4,36.7,12.4,36.7z"/>
<path class="st1" d="M12.4,36.8l0.4-1c0.1-0.5,0-0.9-0.2-1.4l-0.6-1.3c-0.1-0.1-0.1-0.2-0.2-0.4l-1,2.7c0,0.1,0,0.2,0,0.3
	c0,0-0.1,0.1-0.1,0.1L10.2,37c-0.1,0.3-0.1,0.6,0.1,0.8h0.1C11.2,37.8,11.9,37.4,12.4,36.8z"/>
<path class="st1" d="M70.3,51.3v6.6c0,1.8-1.6,3.4-3.4,3.4H37.4c-0.6,0-1,0.4-1,1s0.4,1,1,1h14.9V63c0-0.6,0.4-1,1-1s1,0.4,1,1v0.3
	H63V63c0-0.6,0.4-1,1-1s1,0.4,1,1v0.3h1.9c2.9,0,5.4-2.5,5.4-5.4v-6.6c0,0,0-0.1,0-0.1L70.3,51.3C70.3,51.2,70.3,51.3,70.3,51.3z"/>
<path class="st1" d="M64,62c-0.6,0-1,0.4-1,1v0.3h2V63C65,62.4,64.6,62,64,62z"/>
<path class="st1" d="M54.3,63c0-0.6-0.4-1-1-1s-1,0.4-1,1v0.3h2V63z"/>
<path class="st1" d="M62.5,36.2c0,0.1,0,0.3,0,0.4l6.8,1.5c2.4,0.5,4.1,2.3,4.5,4.8c0.1,0.5,0.5,0.8,1,0.8c0.1,0,0.1,0,0.2,0
	c0.5-0.1,0.9-0.6,0.8-1.2c-0.6-3.3-2.9-5.7-6.1-6.4l-5.5-1.2c-0.5,0.4-1.1,0.7-1.7,0.9V36.2z"/>
<path class="st1" d="M74.9,47.1c-0.6,0-1,0.4-1,1v1c0,0-0.1,0.1-0.2,0.1h-4.6v0.9c0,0.6-0.4,1-1,1s-1-0.4-1-1v-0.9H48.6v0.9
	c0,0.6-0.4,1-1,1s-1-0.4-1-1v-0.9h-4.5c-0.1,0-0.2-0.1-0.2-0.1V44c0-2.9,1.9-5.3,4.6-5.9l6.2-1.3c0-0.2-0.1-0.3-0.1-0.5v-0.4
	c-0.5-0.2-1-0.5-1.5-0.8l-5.2,1.1c-1.4,0.3-2.6,0.9-3.6,1.8c0.4,0.1,0.8,0.5,0.8,1c0,0.6-0.4,1-1,1H41c-0.7,1.2-1.1,2.6-1.1,4.1v5.1
	c0,1.1,1,2.1,2.2,2.1h28.2c0.1-0.5,0.5-0.9,1-0.9s0.9,0.4,1,0.9h1.4c1.2,0,2.2-0.9,2.2-2.1v-1C75.9,47.5,75.5,47.1,74.9,47.1z"/>
<path class="st1" d="M43.3,38.9c0-0.5-0.3-0.8-0.8-1c-0.6,0.6-1.1,1.2-1.6,2h1.3C42.9,39.9,43.3,39.5,43.3,38.9z"/>
<path class="st1" d="M71.3,50.3c-0.5,0-0.9,0.4-1,0.9h2C72.2,50.7,71.8,50.3,71.3,50.3z"/>
<path class="st1" d="M61.8,36.1c-0.4,0.2-0.9,0.3-1.3,0.4c-0.2,1.2-1.4,2.1-2.9,2.1c-1.5,0-2.7-0.9-2.9-2.1
	c-0.4-0.1-0.7-0.2-1.1-0.3c-0.1,0.2-0.4,0.4-0.6,0.5l-0.3,0.1c0.3,2.2,2.3,3.9,4.8,3.9c2.6,0,4.6-1.7,4.9-4l-0.1,0
	C62.1,36.5,61.9,36.4,61.8,36.1z"/>
<path class="st1" d="M62.5,35.8c-0.2,0.1-0.5,0.2-0.7,0.3c0.1,0.2,0.4,0.4,0.6,0.4l0.1,0c0-0.1,0-0.3,0-0.4V35.8z"/>
<path class="st1" d="M53.7,36.2c-0.3-0.1-0.6-0.2-1-0.4v0.4c0,0.2,0,0.4,0.1,0.5l0.3-0.1C53.3,36.6,53.5,36.4,53.7,36.2z"/>
<path class="st1" d="M53,34.7c0.2-0.2,0.4-0.3,0.7-0.3c0.6,0,1,0.4,1,1v0.8c0,0.1,0,0.2,0,0.3c0.9,0.2,1.9,0.4,2.9,0.4
	c1,0,1.9-0.1,2.9-0.4c0-0.1,0-0.2,0-0.3v-0.6c0-0.6,0.4-1,1-1c0.2,0,0.4,0.1,0.5,0.2c0.2-0.1,0.5-0.2,0.8-0.2l1.4,0.3
	c0.7-0.4,1.3-0.9,1.8-1.5c1.7-1.7,2.7-3.8,3.1-6.1c-0.2,0.3-0.5,0.5-0.8,0.5H67c-0.4,1.6-1.2,3-2.4,4.2c-1.8,1.9-4.3,2.9-7,2.9
	c-4.4,0-8.2-3-9.3-7.1h-1.2c-0.6,0-1-0.4-1-1s0.4-1,1-1h0.8c0-0.2,0-0.4,0-0.6v-5.1c0-5.3,4.4-9.7,9.7-9.7s9.7,4.4,9.7,9.7v5.1
	c0,0.2,0,0.4,0,0.6h1c0.4,0,0.8,0.3,0.9,0.7c0-0.4,0.1-0.9,0.1-1.3v-5.1c0-6.5-5.2-11.7-11.7-11.7c-3.7,0-6.9,1.7-9.1,4.3
	c0.4,0.1,0.8,0.5,0.8,1c0,0.6-0.4,1-1,1h-1.1c-0.8,1.6-1.3,3.5-1.3,5.4v5.1c0,4.1,2.1,7.7,5.3,9.8l1.3-0.3
	C52.7,34.7,52.9,34.7,53,34.7z"/>
<path class="st1" d="M49.3,13.7c0-0.5-0.3-0.9-0.8-1c-0.5,0.6-0.9,1.3-1.3,2h1.1C48.9,14.7,49.3,14.3,49.3,13.7z"/>
<path class="st1" d="M62,34.8c0.3,0.2,0.5,0.5,0.5,0.8v0.2c0.6-0.3,1.1-0.6,1.7-0.9l-1.4-0.3C62.5,34.6,62.3,34.6,62,34.8z"/>
<path class="st1" d="M52.7,35.4c0-0.3,0.1-0.5,0.3-0.7c-0.1,0-0.3,0-0.4,0L51.2,35c0.5,0.3,0.9,0.6,1.5,0.8V35.4z"/>
<path class="st1" d="M61.6,35.4c0.1-0.3,0.2-0.5,0.4-0.6c-0.2-0.1-0.3-0.2-0.5-0.2c-0.6,0-1,0.4-1,1v0.6c0,0.1,0,0.2,0,0.3
	c0.4-0.1,0.9-0.2,1.3-0.4C61.6,35.9,61.6,35.7,61.6,35.4z"/>
<path class="st1" d="M53.8,35.5c0.1,0.3,0,0.5-0.1,0.7c0.4,0.1,0.7,0.2,1.1,0.3c0-0.1,0-0.2,0-0.3v-0.8c0-0.6-0.4-1-1-1
	c-0.3,0-0.5,0.1-0.7,0.3C53.4,34.8,53.7,35.1,53.8,35.5z"/>
<path class="st1" d="M61.6,35.4c-0.1,0.3,0,0.5,0.1,0.8c0.2-0.1,0.5-0.2,0.7-0.3v-0.2c0-0.4-0.2-0.6-0.5-0.8
	C61.8,34.9,61.7,35.1,61.6,35.4z"/>
<path class="st1" d="M53.8,35.5c-0.1-0.4-0.4-0.7-0.8-0.8c-0.2,0.2-0.3,0.4-0.3,0.7v0.4c0.3,0.1,0.6,0.3,1,0.4
	C53.8,36,53.8,35.7,53.8,35.5z"/>
<g>
	<path class="st2" d="M74.9,47.1c-0.6,0-1,0.4-1,1v1c0,0-0.1,0.1-0.2,0.1h-4.6v-2.8c0-0.6-0.4-1-1-1s-1,0.4-1,1v2.8H48.6v-2.8
		c0-0.6-0.4-1-1-1s-1,0.4-1,1v2.8h-4.5c-0.1,0-0.2-0.1-0.2-0.1V44c0-2.9,1.9-5.3,4.6-5.9l6.2-1.3c0.3,2.2,2.3,3.9,4.8,3.9
		c2.6,0,4.6-1.7,4.9-4l6.8,1.5c2.4,0.5,4.1,2.3,4.5,4.8c0.1,0.5,0.5,0.8,1,0.8c0.1,0,0.1,0,0.2,0c0.5-0.1,0.9-0.6,0.8-1.2
		c-0.6-3.3-2.9-5.7-6.1-6.4l-5.5-1.2c0.7-0.4,1.3-0.9,1.8-1.5c1.7-1.7,2.7-3.8,3.1-6.1c0.1-0.2,0.2-0.3,0.2-0.5c0-0.1,0-0.2-0.1-0.3
		c0-0.4,0.1-0.9,0.1-1.3v-5.1c0-6.5-5.2-11.7-11.7-11.7c-3.7,0-6.9,1.7-9.1,4.3c-0.1,0-0.1,0-0.2,0H32.5c-0.6,0-1,0.4-1,1s0.4,1,1,1
		h14.7c-0.8,1.6-1.3,3.5-1.3,5.4v5.1c0,4.1,2.1,7.7,5.3,9.8l-5.2,1.1c-1.4,0.3-2.6,0.9-3.6,1.8c-0.1,0-0.2,0-0.2,0H11.9
		c0.1-0.1,0.1-0.2,0.1-0.3l0.3-0.9c0,0,0,0,0.1-0.1c0.2-0.3,0.3-0.6,0.3-0.9l6.8-18.5c0.5-1.5,2-2.5,3.7-2.5h3.2c0.6,0,1-0.4,1-1
		s-0.4-1-1-1h-3.2c-2.5,0-4.7,1.6-5.5,3.9l-5.9,16.2c-0.6-1.1-1.8-1.7-3-1.7H4.9c-1.2,0-2.3,1.1-2.3,2.3v2.2c0,1.2,1.1,2.3,2.3,2.3
		h5.4c0,0.1,0.1,0.2,0.2,0.2c-2.4,0.5-4.3,2.7-4.3,5.3v14.6c0,2.7,2.1,5,4.7,5.3v5.9c0,1.8,1.6,3.4,3.4,3.4h5.9
		c1.8,0,3.4-1.6,3.4-3.4v-5.8H31c0.6,0,1-0.4,1-1s-0.4-1-1-1H11.5c-1.8,0-3.4-1.6-3.4-3.4V43.3c0-1.8,1.6-3.4,3.4-3.4H41
		c-0.7,1.2-1.1,2.6-1.1,4.1v5.1c0,1.1,1,2.1,2.2,2.1h28.2c0,0,0,0.1,0,0.1v6.6c0,1.8-1.6,3.4-3.4,3.4H37.4c-0.6,0-1,0.4-1,1
		s0.4,1,1,1h14.9v5.8c0,1.8,1.6,3.4,3.4,3.4h5.9c1.8,0,3.4-1.6,3.4-3.4v-5.8h1.9c2.9,0,5.4-2.5,5.4-5.4v-6.6c0,0,0-0.1,0-0.1h1.4
		c1.2,0,2.2-0.9,2.2-2.1v-1C75.9,47.5,75.5,47.1,74.9,47.1z M48.9,21.6c0-1.7,1.9-3,4.4-3c2.1,0,3.8,0.9,4.3,2.2
		c0.5-1.3,2.2-2.2,4.2-2.2c2.5,0,4.4,1.3,4.4,3s-1.9,3-4.4,3c-2.1,0-3.8-0.9-4.2-2.2c-0.5,1.3-2.2,2.2-4.3,2.2
		C50.8,24.6,48.9,23.3,48.9,21.6z"/>
	<path class="st2" d="M61.8,22.6c1.5,0,2.4-0.7,2.4-1s-0.9-1-2.4-1c-1.5,0-2.4,0.7-2.4,1S60.3,22.6,61.8,22.6z"/>
	<path class="st2" d="M45.1,55.8c0-0.6-0.4-1-1-1H26.4c-0.6,0-1,0.4-1,1s0.4,1,1,1h17.7C44.7,56.8,45.1,56.4,45.1,55.8z"/>
	<path class="st2" d="M21.8,47.2c-0.4-0.9-1.3-1.5-2.3-1.5h-5.4c-0.4,0-0.8,0.4-0.8,0.8v3.1c0,0.4,0.4,0.8,0.8,0.8h7.7
		c0.3,0,0.6-0.2,0.8-0.5c0.1-0.1,0.2-0.4,0.1-0.8L21.8,47.2z"/>
	<ellipse class="st2" cx="57.6" cy="21.6" rx="0.1" ry="0.8"/>
	<path class="st2" d="M55.7,21.6c0-0.3-0.9-1-2.4-1c-1.5,0-2.4,0.7-2.4,1s0.9,1,2.4,1C54.8,22.6,55.7,21.9,55.7,21.6z"/>
	<path class="st2" d="M35.5,20.2c0.6,0,1-0.4,1-1s-0.4-1-1-1h-0.2c-0.6,0-1,0.4-1,1s0.4,1,1,1H35.5z"/>
	<path class="st2" d="M23,20.7l-2.4,6.4l-0.2,0.4c0,0,0,0.1,0,0.1l-1,2.7l-0.1,0.1c-0.2,0.5,0,1.1,0.4,1.3c0.1,0.1,0.3,0.1,0.4,0.1
		c0.4,0,0.7-0.2,0.9-0.6l0.1-0.2c0,0,0-0.1,0-0.1l1-2.7l0.2-0.3c0,0,0-0.1,0-0.1l2.4-6.4c0.3-0.7,0.9-1.1,1.7-1.1h4.8
		c0.6,0,1-0.4,1-1s-0.4-1-1-1h-4.8C24.9,18.3,23.5,19.3,23,20.7z"/>
	<path class="st1" d="M19.5,43.7h-5.4c-1.5,0-2.8,1.3-2.8,2.8v3.1c0,1.5,1.3,2.8,2.8,2.8h7.7c1,0,2-0.5,2.5-1.4
		c0.5-0.8,0.6-1.9,0.2-2.7l-0.9-1.8C23,44.8,21.3,43.7,19.5,43.7z M22.6,49.9c-0.2,0.3-0.5,0.5-0.8,0.5h-7.7c-0.4,0-0.8-0.4-0.8-0.8
		v-3.1c0-0.4,0.4-0.8,0.8-0.8h5.4c1,0,1.9,0.6,2.3,1.5l0.9,1.9C22.9,49.5,22.7,49.8,22.6,49.9z"/>
	<path class="st1" d="M57.6,22.4c-0.1-0.2-0.1-0.5-0.1-0.8s0.1-0.5,0.1-0.8c-0.5-1.3-2.2-2.2-4.3-2.2c-2.5,0-4.4,1.3-4.4,3
		s1.9,3,4.4,3C55.4,24.6,57.1,23.7,57.6,22.4z M50.9,21.6c0-0.3,0.9-1,2.4-1c1.5,0,2.4,0.7,2.4,1s-0.9,1-2.4,1
		C51.8,22.6,50.9,21.9,50.9,21.6z"/>
	<path class="st1" d="M57.6,22.4c0.5,1.3,2.2,2.2,4.2,2.2c2.5,0,4.4-1.3,4.4-3s-1.9-3-4.4-3c-2.1,0-3.8,0.9-4.2,2.2
		c0.1,0.2,0.1,0.5,0.1,0.8S57.6,22.1,57.6,22.4z M61.8,20.6c1.5,0,2.4,0.7,2.4,1s-0.9,1-2.4,1c-1.5,0-2.4-0.7-2.4-1
		S60.3,20.6,61.8,20.6z"/>
</g>
<ellipse class="st1" cx="57.6" cy="21.6" rx="0.1" ry="0.8"/>
<path class="st1" d="M48.6,46.4c0-0.6-0.4-1-1-1s-1,0.4-1,1v2.8h2V46.4z"/>
<path class="st1" d="M47.6,51.1c0.6,0,1-0.4,1-1v-0.9h-2v0.9C46.6,50.7,47,51.1,47.6,51.1z"/>
<path class="st1" d="M69.1,46.4c0-0.6-0.4-1-1-1s-1,0.4-1,1v2.8h2V46.4z"/>
<path class="st1" d="M68.1,51.1c0.6,0,1-0.4,1-1v-0.9h-2v0.9C67.1,50.7,67.5,51.1,68.1,51.1z"/>
<path class="st1" d="M54.2,32.1l5.7,1c0.1,0,0.1,0,0.2,0c0.5,0,0.9-0.3,1-0.8c0.1-0.5-0.3-1.1-0.8-1.2l-5.7-1
	c-0.5-0.1-1.1,0.3-1.2,0.8C53.3,31.5,53.7,32,54.2,32.1z M60.1,32.1l-5.7-1L60.1,32.1z"/>
<path class="st1" d="M69.3,26.8c0-0.1,0-0.2-0.1-0.3c0,0.3-0.1,0.5-0.1,0.8C69.2,27.2,69.3,27,69.3,26.8z"/>
<path class="st1" d="M47.9,25.8c0,0.7,0.2,1.4,0.3,2H67c0.2-0.6,0.3-1.3,0.3-2H47.9z"/>
<path class="st1" d="M68.3,25.8h-1c0,0.7-0.1,1.4-0.3,2h1.3c0.4,0,0.7-0.2,0.8-0.5c0-0.3,0.1-0.5,0.1-0.8
	C69.1,26.1,68.7,25.8,68.3,25.8z"/>
<path class="st1" d="M47.1,25.8c-0.6,0-1,0.4-1,1s0.4,1,1,1h1.2c-0.2-0.6-0.3-1.3-0.3-2H47.1z"/>
</svg>
