<?xml version="1.0" encoding="utf-8"?>
<!-- Generator: Adobe Illustrator 24.0.3, SVG Export Plug-In . SVG Version: 6.00 Build 0)  -->
<svg version="1.1" id="Camada_1" xmlns="http://www.w3.org/2000/svg" xmlns:xlink="http://www.w3.org/1999/xlink" x="0px" y="0px"
	 viewBox="0 0 300 300" style="enable-background:new 0 0 300 300;" xml:space="preserve">
<style type="text/css">
	.st0{fill:none;}
	.st1{fill:#00D7CE;}
	.st2{fill:#FE7B00;}
</style>
<g>
	<path class="st0" d="M165.2,117.5c3.1,3,11.4,11.5,13,13.8l0.6,0.9l12.5-12.5c3.9-4.1,3.9-10.6-0.2-14.6c-4.1-4.1-10.7-4.1-14.8,0
		l-11.8,11.8L165.2,117.5z"/>
	<path class="st0" d="M175.6,93.7c0-2.8-1.1-5.4-3.1-7.4c-4.1-4.1-10.8-4.1-14.8,0l-11.8,11.8l14.8,14.8l11.8-11.8
		C174.5,99.2,175.6,96.5,175.6,93.7z"/>
	<path class="st0" d="M177.9,155.7c2,2,4.6,3.1,7.4,3.1c2.8,0,5.4-1.1,7.4-3.1l13.7-13.7c2-2,3.1-4.6,3.1-7.4c0-2.8-1.1-5.4-3.1-7.4
		c-2-2-4.6-3.1-7.4-3.1s-5.4,1.1-7.4,3.1l-13.7,13.7c-2,2-3.1,4.6-3.1,7.4C174.8,151.1,175.9,153.7,177.9,155.7z"/>
	<path class="st0" d="M192.8,175.9c1.7,1.7,3.9,2.6,6.3,2.6c2.4,0,4.6-0.9,6.3-2.6l17.5-17.5c1.7-1.7,2.6-3.9,2.6-6.2
		s-0.9-4.6-2.6-6.2c-1.7-1.7-3.9-2.6-6.3-2.6s-4.6,0.9-6.3,2.6l-17.5,17.5c-1.7,1.7-2.6,3.9-2.6,6.2S191.2,174.2,192.8,175.9z"/>
	<path class="st1" d="M163.6,206.2c-1.5-0.2-2.8-0.4-4-0.6c-7.7-1.3-10.9-1.8-19.6,6.8L116.4,236l-19.7-19.7c-0.7-0.7-1.8-0.7-2.5,0
		c-0.7,0.7-0.7,1.8,0,2.5l21,20.9c1.2,1.2,1.9,2.9,1.9,4.6s-0.7,3.4-1.9,4.6l-18.7,18.6c-1.2,1.2-2.9,1.9-4.7,1.9s-3.4-0.7-4.7-1.9
		l-51.5-51.4c-1.2-1.2-1.9-2.9-1.9-4.6s0.7-3.4,1.9-4.6l18.7-18.6c2.6-2.6,6.7-2.6,9.3,0l18.4,18.4c0.7,0.7,1.8,0.7,2.5,0
		c0.3-0.3,0.5-0.8,0.5-1.2c0-0.5-0.2-0.9-0.5-1.2L67.4,187l14.3-14.2c14-14,19.7-24.8,19-36.3c-0.4-6.7,2.1-13.6,6.5-18L129.7,96
		c2.1-2.1,5.5-2.1,7.6,0l29.2,29.1c3.2,3.2,7.6,7.5,8.9,10.1l0.6,1.2l-1.3,1.3c-0.8,0.8-1.6,1.8-2.2,2.7l-0.2,0.4l-0.4,0.2
		c-9,5.6-22.4-0.7-28.6-6.6l-0.8-0.8c-5.4-5.4-8.4-8.3-8.8-8.8c-0.8-0.7-1.8-0.8-2.5-0.1c-0.3,0.3-0.5,0.8-0.5,1.2
		c0,0.5,0.2,0.9,0.5,1.3c2.9,2.9,4.4,6.8,4.4,11.5c0,7-3.5,14.6-9.4,20.5c-0.7,0.7-0.7,1.8,0,2.5c0.7,0.7,1.8,0.7,2.5,0
		c1-1,1.9-2,2.8-3.1l0.7-0.9l-0.1-0.4l3.1-4.6h0.2l0-0.1c2.3-4.2,3.5-8.8,3.7-13.1l0.1-4l3,2.6c4,3.5,9.3,6.3,14.4,7.6
		c4.1,1.1,8,1.3,11.4,0.6l2.3-0.5v2.3c0,4.1,1.6,7.9,4.4,10.7c2.6,2.6,6.2,4.2,9.9,4.4l2.5,0.1l-0.7,2.4c-0.4,1.3-0.6,2.6-0.6,3.9
		c0,3.6,1.4,6.9,3.9,9.4c2.5,2.5,5.9,3.9,9.4,3.9c0.5,0,1,0,1.6-0.1l0.4,0l0.2-0.4l4.6-1.5h0.5l0.8-0.6c0.5-0.4,1-0.8,1.4-1.2
		l17.5-17.5c2.5-2.5,3.9-5.9,3.9-9.4c0-3.6-1.4-6.9-3.9-9.4c-2.7-2.7-6.4-4.1-10.2-3.9l-2.3,0.1l0.3-2.3c0.1-0.7,0.1-1.4,0.1-2.1
		c0-4-1.6-7.8-4.4-10.6c-2.6-2.6-6.2-4.2-9.9-4.4l-2.5-0.1l0.8-2.4c1.8-5.4,0.4-11.4-3.6-15.3c-3.2-3.2-7.7-4.8-12.3-4.3l-2.4,0.3
		l0.3-2.4c0.1-0.6,0.1-1.2,0.1-1.7c0-4-1.6-7.8-4.4-10.6c-5.8-5.8-15.4-5.8-21.2,0l-12.6,12.5l-2.2-2.2c-3.4-3.4-9.1-3.4-12.5,0
		l-5.1,5.1l-0.3-0.3l-0.1,0.2l-2.3,2.3l0.2,0.2l-15,15c-0.8,0.8-1.5,1.7-2.2,2.6l-1.2,1.6l-0.7-0.2l-1.2,3.6l0.1,0.2l-0.4,1
		c-1.5,3.8-2.1,7.9-1.9,11.9c0.6,10.4-4.7,20.5-18,33.7l-14.3,14.3l-1.2-0.6c-1.4-0.7-3-1.1-4.6-1.1c-2.7,0-5.2,1-7.1,3l-18.7,18.6
		c-1.9,1.9-2.9,4.4-2.9,7.1s1,5.2,2.9,7.1l51.5,51.4c1.9,1.9,4.4,2.9,7.1,2.9c2.7,0,5.2-1,7.1-2.9l18.7-18.6
		c1.9-1.9,2.9-4.4,2.9-7.1c0-1.6-0.4-3.2-1.1-4.6l-0.6-1.2l23.6-23.6c7.2-7.2,8.9-7.2,16.6-5.9c1.2,0.2,2.6,0.4,4,0.6
		c4.6,0.7,9.9-1.2,13.8-3l-2.7-2.7C170.1,205.8,166.3,206.6,163.6,206.2z M216.6,142.3c2.6,0,5.1,1,7,2.9c1.8,1.8,2.9,4.3,2.9,6.9
		s-1,5.1-2.9,6.9L206,176.6c-1.9,1.9-4.3,2.9-7,2.9c-2.6,0-5.1-1-7-2.9c-1.8-1.8-2.9-4.3-2.9-6.9s1-5.1,2.9-6.9l17.5-17.5
		C211.5,143.3,214,142.3,216.6,142.3z M199,123.1c3.1,0,6,1.2,8.1,3.4c2.2,2.2,3.4,5,3.4,8.1c0,3.1-1.2,5.9-3.4,8.1l-13.7,13.7
		c-2.2,2.2-5,3.3-8.1,3.3c-3.1,0-6-1.2-8.1-3.4c-2.2-2.1-3.4-5-3.4-8.1c0-3.1,1.2-6,3.4-8.1l13.7-13.7
		C193.1,124.3,196,123.1,199,123.1z M191.9,104.3c4.4,4.4,4.5,11.6,0.2,16.1l-13.4,13.4l-1.3-1.9c-1.6-2.3-9.8-10.6-12.9-13.7h0
		l-1.4-1.4l12.6-12.5C180.2,99.8,187.5,99.8,191.9,104.3z M157,85.6c4.5-4.5,11.8-4.5,16.3,0c2.2,2.2,3.3,5,3.3,8.1
		c0,3.1-1.2,6-3.3,8.1l-12.6,12.5l-16.3-16.2L157,85.6z"/>
	<path class="st2" d="M260.7,199.9c-11.7-11.7-29.3-15.3-44.8-9.3l-1.2,0.5l-7.2-7.2l-3.3,1.7l8.9,8.9c0.5,0.5,1.3,0.7,2,0.4
		c14.5-6.7,31.9-3.6,43.1,7.6c8.9,8.9,12.8,21.7,10.5,34.1c-0.3,1.8-0.8,3.1-1.3,4.1l-1,1.8l-1.7-1.1c-0.8-0.5-1.9-1.5-3.2-3.1
		c-0.4-0.4-11.1-11.1-17.7-17.8c-6.5-6.5-17.1-6.9-24.1-0.8c-0.1,0-0.1,0.1-0.2,0.2c-6.1,7-5.7,17.5,0.8,24.1l22.5,22.4l-2.3,1.2
		c-0.9,0.5-2.3,0.9-4.1,1.3c-12.5,2.4-25.3-1.5-34.2-10.5c-2.8-2.8-5.2-6.1-7-9.6c-0.3-0.6-0.9-1-1.6-1c-0.3,0-0.5,0.1-0.8,0.2
		c-0.4,0.2-0.7,0.6-0.9,1c-0.1,0.4-0.1,0.9,0.1,1.3c2,3.8,4.5,7.4,7.6,10.5c7.9,7.8,18.3,12.2,29.5,12.2c2.6,0,5.3-0.2,7.8-0.7
		c1.8-0.3,7.1-1.3,8-4.9c0.9-3.5-2.9-6.8-4.7-8.3c-0.2-0.2-5.1-5.1-17.6-17.5c-5.2-5.1-5.5-13.5-0.8-19.1l0.2-0.2
		c5.6-4.7,14-4.3,19.2,0.8c15.3,15.2,17.4,17.4,17.5,17.6c1.6,1.8,4.9,5.6,8.4,4.7c3.6-1,4.6-6.3,4.9-8
		C274.8,223.5,270.5,209.6,260.7,199.9z"/>
	<path class="st2" d="M194.6,215.2c0.3-0.7,0.2-1.5-0.4-2l-56.8-56.6l-1.3,3.6l42.1,42l-0.1,0l2.5,2.5l0.1,0l10.2,10.1l-0.5,1.2
		c-2.1,5.3-3.1,11.2-2.8,17c0,0.9,0.8,1.7,1.7,1.7c1,0,1.8-0.8,1.8-1.8C190.9,226.8,192.1,220.7,194.6,215.2z"/>
	<path class="st2" d="M84,109.8l1.2-0.5l8,8l2.6-2.4l-9-9c-0.5-0.5-1.3-0.7-2-0.4c-14.5,6.7-31.8,3.6-43.1-7.6
		c-8.9-8.9-12.8-21.7-10.5-34.1c0.3-1.7,0.8-3.2,1.3-4.1l1-1.8l1.7,1.1c0.8,0.5,1.9,1.5,3.2,3.1C38.8,62.6,49,72.8,56.1,80
		c6.6,6.5,17.2,6.9,24.1,0.8c0.1-0.1,0.1-0.1,0.2-0.2c6.1-7,5.7-17.5-0.8-24.1C59.2,36.4,58.8,35.9,58.7,35.7l-1.2-1.8l1.9-1
		c0.9-0.5,2.3-0.9,4.1-1.3c12.5-2.4,25.3,1.6,34.2,10.5c11.3,11.2,14.3,28.5,7.7,43c-0.3,0.7-0.2,1.5,0.4,2l9.5,9.5l2.6-2.4
		l-8.8-8.7l0.5-1.2c6-15.5,2.4-33-9.3-44.7c-9.7-9.7-23.7-14-37.3-11.4c-1.8,0.3-7.1,1.3-8,4.9c-0.9,3.5,2.9,6.8,4.7,8.3
		c0.1,0.1,2.2,2.2,17.6,17.5c5.2,5.1,5.5,13.5,0.8,19.1l-0.2,0.2c-5.6,4.7-14,4.3-19.2-0.8C41.3,60.2,41.1,60,41,59.9
		c-1.6-1.8-4.9-5.6-8.4-4.7c-3.6,1-4.6,6.3-4.9,8c-2.6,13.6,1.7,27.5,11.4,37.3C50.9,112.2,68.5,115.8,84,109.8z"/>
</g>
</svg>
