<?xml version="1.0" encoding="utf-8"?>
<!-- Generator: Adobe Illustrator 23.0.6, SVG Export Plug-In . SVG Version: 6.00 Build 0)  -->
<svg version="1.1" id="Camada_1" xmlns="http://www.w3.org/2000/svg" xmlns:xlink="http://www.w3.org/1999/xlink" x="0px" y="0px"
	 viewBox="0 0 700 385.4" style="enable-background:new 0 0 700 385.4;" xml:space="preserve">
<style type="text/css">
	.st0{fill:#00D7CE;}
	.st1{fill:#FE7B00;}
</style>
<g id="Grupo_20" transform="translate(0 0)">
	<path id="Caminho_32" class="st0" d="M604.3,117.4c-3.2-3.4-79.9-84.5-254.3-84.5s-251,81.1-254.3,84.5c-0.8,0.9-1.1,2.2-0.8,3.3
		l65.6,229c0.3,1.2,1.3,2.1,2.5,2.5c1.2,0.4,2.6,0.2,3.6-0.6c0.5-0.4,57.5-40.9,183.5-40.9c11.3,0,22.4,0.4,35.2,1.2l12,0.8
		l-0.5,0.8l1.1-0.4l3.6-6.8l-0.1-0.2l-3.8-0.3c-17.3-1.5-32.4-2.2-47.4-2.2c-40.7,0-117.8,4.5-175.7,35l-7.9,4.2l-63.6-222l3.1-2.8
		c21.6-18.8,46.4-34.1,73.2-45.2c109.3-43.5,232.3-43.5,341.6,0c26.9,11.1,51.7,26.4,73.5,45.2l3.1,2.8l-63.6,222l-7.9-4.2
		c-32.6-15.9-68-26.1-104.4-30.2l-10.7-1.5l-5.3,6.7l0.3,0.2v-0.1l4.4,0.5c84.6,9.7,123,37.3,123.4,37.5c0.7,0.5,1.5,0.7,2.3,0.7
		c0.4,0,0.8-0.1,1.1-0.2c1.2-0.4,2.2-1.3,2.5-2.5l65.6-229C605.5,119.5,605.1,118.3,604.3,117.4z"/>
	<path id="Caminho_33" class="st1" d="M187.9,118.7c-0.3-0.9-0.9-1.7-1.8-2.1c-0.5-0.2-1.1-0.4-1.6-0.4c-1.4,0-2.6,0.8-3.3,2
		l-20.8,41.6c-0.9,1.8-0.2,4,1.6,4.9c1.8,0.9,4,0.2,4.9-1.6l0,0l20.8-41.6C188.1,120.6,188.2,119.6,187.9,118.7z"/>
	<path id="Caminho_34" class="st1" d="M227.7,116.5c-0.5-0.2-1.1-0.4-1.6-0.4c-1.4,0-2.6,0.8-3.3,2l-41.6,83.3
		c-0.9,1.8-0.2,4,1.6,4.9c1.8,0.9,4,0.2,4.9-1.6l0,0l41.6-83.3C230.2,119.6,229.5,117.4,227.7,116.5L227.7,116.5z"/>
	<path id="Caminho_35" class="st1" d="M407.7,306.8h-0.3l64.3-100.1h31.5L481,288.3c-0.5,1.9,0.6,3.9,2.5,4.5c0.3,0.1,0.6,0.1,1,0.1
		c1.6,0,3-1.1,3.4-2.7l42.4-155.6c0.5-1.9-0.6-3.9-2.6-4.4c-0.9-0.2-1.9-0.1-2.7,0.3c-0.8,0.5-1.5,1.3-1.7,2.2l-18.2,66.8h-35.4
		c-1.2,0-2.4,0.7-3,1.7l-67.5,105h-0.5l0.1,0.2l-3.4,6.8l-1,0.4L374,345.3h-8.4c-2,0-3.6,1.6-3.6,3.6c0,2,1.6,3.6,3.6,3.6h41.6
		c2,0,3.6-1.6,3.6-3.6c0-2-1.6-3.6-3.6-3.6c0,0,0,0,0,0h-24.6l20.2-31.4l-0.3-0.2L407.7,306.8z"/>
</g>
</svg>
